<?xml version="1.0" encoding="UTF-8" standalone="no"?>
<!-- Generator: Adobe Illustrator 16.0.0, SVG Export Plug-In . SVG Version: 6.00 Build 0)  -->

<svg
   xmlns:dc="http://purl.org/dc/elements/1.1/"
   xmlns:cc="http://creativecommons.org/ns#"
   xmlns:rdf="http://www.w3.org/1999/02/22-rdf-syntax-ns#"
   xmlns:svg="http://www.w3.org/2000/svg"
   xmlns="http://www.w3.org/2000/svg"
   xmlns:sodipodi="http://sodipodi.sourceforge.net/DTD/sodipodi-0.dtd"
   xmlns:inkscape="http://www.inkscape.org/namespaces/inkscape"
   version="1.1"
   x="0px"
   y="0px"
   width="293.5px"
   height="293.5px"
   viewBox="0 0 293.5 293.5"
   enable-background="new 0 0 293.5 293.5"
   xml:space="preserve"
   id="svg11"
   sodipodi:docname="whatsapp.svg"
   inkscape:version="0.92.5 (2060ec1f9f, 2020-04-08)"><metadata
   id="metadata17"><rdf:RDF><cc:Work
       rdf:about=""><dc:format>image/svg+xml</dc:format><dc:type
         rdf:resource="http://purl.org/dc/dcmitype/StillImage" /></cc:Work></rdf:RDF></metadata><defs
   id="defs15">
	
	
</defs><sodipodi:namedview
   pagecolor="#ffffff"
   bordercolor="#666666"
   borderopacity="1"
   objecttolerance="10"
   gridtolerance="10"
   guidetolerance="10"
   inkscape:pageopacity="0"
   inkscape:pageshadow="2"
   inkscape:window-width="1360"
   inkscape:window-height="704"
   id="namedview13"
   showgrid="false"
   inkscape:zoom="0.80408859"
   inkscape:cx="8.0836864"
   inkscape:cy="146.75"
   inkscape:window-x="0"
   inkscape:window-y="27"
   inkscape:window-maximized="1"
   inkscape:current-layer="svg11" />
<g
   id="background_1_"
   enable-background="new    ">
</g>
<g
   id="WA_Logo"
   transform="matrix(1.2076369,0,0,1.2076369,-35.368648,-25.90335)">
		<g
   id="g7">
			<path
   style="clip-rule:evenodd;fill:#ffffff;fill-rule:evenodd"
   inkscape:connector-curvature="0"
   id="path5"
   d="M 223.777,70.979 C 204.154,51.333 178.058,40.509 150.255,40.497 92.967,40.497 46.341,87.12 46.318,144.426 c -0.007,18.318 4.778,36.198 13.874,51.961 l -14.745,53.858 55.098,-14.453 c 15.181,8.28 32.273,12.645 49.668,12.651 h 0.043 c 57.282,0 103.912,-46.629 103.936,-103.936 0.01,-27.77 -10.792,-53.883 -30.415,-73.528 z M 150.256,230.89 h -0.035 c -15.501,-0.006 -30.705,-4.171 -43.968,-12.042 l -3.155,-1.871 -32.696,8.576 8.727,-31.878 -2.054,-3.27 c -8.647,-13.753 -13.215,-29.65 -13.208,-45.974 0.019,-47.63 38.772,-86.38 86.424,-86.38 23.073,0.008 44.764,9.005 61.074,25.335 16.31,16.329 25.286,38.033 25.277,61.116 -0.019,47.634 -38.772,86.388 -86.386,86.388 z m 47.385,-64.701 c -2.597,-1.299 -15.364,-7.582 -17.745,-8.449 -2.38,-0.865 -4.112,-1.299 -5.843,1.301 -1.731,2.6 -6.709,8.449 -8.224,10.183 -1.515,1.732 -3.03,1.95 -5.626,0.649 -2.598,-1.299 -10.965,-4.042 -20.885,-12.89 -7.72,-6.886 -12.932,-15.39 -14.447,-17.991 -1.515,-2.6 -0.162,-4.005 1.139,-5.3 1.168,-1.164 2.597,-3.034 3.896,-4.55 1.299,-1.516 1.731,-2.6 2.597,-4.333 0.866,-1.733 0.433,-3.25 -0.217,-4.549 -0.649,-1.301 -5.843,-14.084 -8.007,-19.284 -2.108,-5.063 -4.249,-4.378 -5.843,-4.458 -1.513,-0.075 -3.246,-0.092 -4.978,-0.092 -1.731,0 -4.544,0.65 -6.925,3.25 -2.38,2.6 -9.089,8.883 -9.089,21.666 0,12.783 9.305,25.131 10.604,26.865 1.298,1.733 18.313,27.964 44.364,39.214 6.195,2.676 11.033,4.273 14.805,5.471 6.222,1.977 11.883,1.697 16.357,1.029 4.99,-0.746 15.365,-6.283 17.529,-12.349 2.164,-6.067 2.164,-11.267 1.515,-12.35 -0.649,-1.082 -2.38,-1.732 -4.977,-3.033 z" />
		</g>
	</g>
</svg>