<?xml version="1.0" encoding="UTF-8"?>
<svg width="752pt" height="752pt" version="1.1" viewBox="0 0 752 752" xmlns="http://www.w3.org/2000/svg">
 <path d="m376.01 167.07c-115.2 0-208.93 93.73-208.93 208.93 0 89.715 56.859 166.39 136.43 195.93 13.684 5.0781 28.039 8.7422 42.891 10.859 9.6758 1.375 19.555 2.1367 29.609 2.1367 17.352 0 34.207-2.168 50.344-6.168 9.1641-2.2773 18.082-5.1797 26.719-8.625 77.164-30.738 131.86-106.15 131.86-194.13 0.007813-115.21-93.715-208.94-208.91-208.94zm77.062 381.03v-284.7c-60.168 0-66.496 202.72-66.496 202.72h39.777v91.633c-16.035 4.4531-32.91 6.875-50.344 6.875-10.488 0-20.758-0.90234-30.781-2.5586l-8.8945-157.81c20.574-5.2148 35.809-23.793 35.809-45.988l-0.003906-96.426h-12.543v76.031c0 3.8828-3.1562 7.0352-7.0352 7.0352-3.8945 0-7.0391-3.1523-7.0391-7.0352l0.003907-76.031h-13.844v76.031c0 3.8828-3.1523 7.0352-7.0391 7.0352-3.8828 0-7.0273-3.1523-7.0273-7.0352v-76.031h-13.844v76.031c0 3.8828-3.1445 7.0352-7.0391 7.0352-3.8828 0-7.0352-3.1523-7.0352-7.0352v-76.031h-12.547v96.43c0 22.184 15.238 40.77 35.801 45.988l-8.2422 146.33c-68.766-28.184-117.34-95.809-117.34-174.59 0-104.01 84.621-188.63 188.64-188.63 104.01 0 188.62 84.617 188.62 188.63 0 76.555-45.875 142.57-111.56 172.1z"/>
</svg>