<?xml version="1.0" encoding="UTF-8" standalone="no"?>
<svg
   xmlns:dc="http://purl.org/dc/elements/1.1/"
   xmlns:cc="http://creativecommons.org/ns#"
   xmlns:rdf="http://www.w3.org/1999/02/22-rdf-syntax-ns#"
   xmlns:svg="http://www.w3.org/2000/svg"
   xmlns="http://www.w3.org/2000/svg"
   xmlns:sodipodi="http://sodipodi.sourceforge.net/DTD/sodipodi-0.dtd"
   xmlns:inkscape="http://www.inkscape.org/namespaces/inkscape"
   data-name="Layer 1"
   width="305.81995"
   height="290.25775"
   viewBox="0 0 305.81995 290.25774"
   version="1.1"
   id="svg209"
   sodipodi:docname="desktop.svg"
   inkscape:version="0.92.5 (2060ec1f9f, 2020-04-08)">
  <metadata
     id="metadata215">
    <rdf:RDF>
      <cc:Work
         rdf:about="">
        <dc:format>image/svg+xml</dc:format>
        <dc:type
           rdf:resource="http://purl.org/dc/dcmitype/StillImage" />
        <dc:title></dc:title>
      </cc:Work>
    </rdf:RDF>
  </metadata>
  <defs
     id="defs213" />
  <sodipodi:namedview
     pagecolor="#ffffff"
     bordercolor="#666666"
     borderopacity="1"
     objecttolerance="10"
     gridtolerance="10"
     guidetolerance="10"
     inkscape:pageopacity="0"
     inkscape:pageshadow="2"
     inkscape:window-width="1360"
     inkscape:window-height="704"
     id="namedview211"
     showgrid="false"
     inkscape:zoom="0.41240158"
     inkscape:cx="538.08134"
     inkscape:cy="218.10635"
     inkscape:window-x="0"
     inkscape:window-y="27"
     inkscape:window-maximized="1"
     inkscape:current-layer="svg209" />
  <path
     d="m 118.94534,173.02256 v 102.56 h 71.85 v -102.56 a 3.448,3.448 0 0 0 -2.43,-3.3 3.1749,3.1749 0 0 0 -1.03,-0.16 h -64.92 a 3.46328,3.46328 0 0 0 -3.47,3.46 z m 28.04,35.24 a 7.67033,7.67033 0 0 1 15.34,0 v 11.9 a 7.6701,7.6701 0 0 1 -15.34,0 z"
     id="path156"
     inkscape:connector-curvature="0"
     style="fill:#2f2e41" />
  <path
     d="m 118.7254,272.30263 v 9.89 a 1.94622,1.94622 0 0 0 1.93,1.94 h 68.43 a 1.93972,1.93972 0 0 0 1.93,-1.94 v -9.89 z"
     id="path158"
     inkscape:connector-curvature="0"
     style="fill:#3f3d56" />
  <path
     d="M 5.9153409,18.502605 V 205.76255 a 9.00714,9.00714 0 0 0 9.0000001,9 H 292.41534 a 9.0071,9.0071 0 0 0 9,-9 V 18.502605 a 9.01147,9.01147 0 0 0 -9,-8.9900049 H 14.915341 A 9.01151,9.01151 0 0 0 5.9153409,18.502605 Z"
     id="path160"
     inkscape:connector-curvature="0"
     style="fill:#3f3d56" />
  <path
     d="M 12.425341,20.832536 V 203.45256 a 4.81833,4.81833 0 0 0 4.81,4.81 H 290.10534 a 4.81829,4.81829 0 0 0 4.81,-4.81 V 20.832536 a 4.82047,4.82047 0 0 0 -4.81,-4.820002 H 17.235341 a 4.82051,4.82051 0 0 0 -4.81,4.820002 z"
     id="path162"
     inkscape:connector-curvature="0"
     style="fill:#ffffff" />
  <path
     d="m 31.832961,283.46256 a 4.2226777,2.9484 0 0 0 3.32267,1.11 H 267.65783 a 4.2783184,2.98725 0 0 0 4.18201,-3.6 l -3.60913,-11.97 a 4.2860379,2.99264 0 0 0 -2.66387,-2.17 4.1455397,2.89454 0 0 0 -1.51813,-0.19995 H 38.750441 a 4.145196,2.8943 0 0 0 -1.51811,0.19995 4.2856798,2.99239 0 0 0 -2.66389,2.17 l -3.60913,11.97 a 4.275096,2.985 0 0 0 0.87365,2.49 z"
     id="path164"
     inkscape:connector-curvature="0"
     style="fill:#2f2e41;stroke-width:1.19674265" />
  <path
     d="M 281.24985,41.16927 H 25.926491 a 1.0156,1.0156 0 0 1 0,-2.0307 H 281.24985 a 1.0156,1.0156 0 0 1 0,2.0307 z"
     id="path166"
     inkscape:connector-curvature="0"
     style="fill:#3f3d56" />
  <ellipse
     cx="43.306679"
     cy="27.871361"
     rx="5.9504299"
     ry="6.0830402"
     id="ellipse168"
     style="fill:#3f3d56" />
  <ellipse
     cx="63.862701"
     cy="27.871361"
     rx="5.9504299"
     ry="6.0830402"
     id="ellipse170"
     style="fill:#3f3d56" />
  <ellipse
     cx="84.418732"
     cy="27.871361"
     rx="5.9504299"
     ry="6.0830402"
     id="ellipse172"
     style="fill:#3f3d56" />
  <path
     d="m 268.87171,23.292607 h -14.6 a 1.1053,1.1053 0 0 0 0,2.210001 h 14.6 a 1.10511,1.10511 0 0 0 0,-2.210001 z"
     id="path174"
     inkscape:connector-curvature="0"
     style="fill:#3f3d56" />
  <path
     d="m 268.87171,27.442609 h -14.6 a 1.10527,1.10527 0 0 0 0,2.210001 h 14.6 a 1.10508,1.10508 0 0 0 0,-2.210001 z"
     id="path176"
     inkscape:connector-curvature="0"
     style="fill:#3f3d56" />
  <path
     d="m 268.87171,31.59255 h -14.6 a 1.1053,1.1053 0 0 0 0,2.21 h 14.6 a 1.10511,1.10511 0 0 0 0,-2.21 z"
     id="path178"
     inkscape:connector-curvature="0"
     style="fill:#3f3d56" />
  <rect
     x="136.63991"
     y="96.368896"
     width="50.719158"
     height="10.8457"
     rx="3.2641699"
     id="rect190"
     style="fill:#6c63ff" />
  <rect
     x="110.88138"
     y="118.0603"
     width="102.23622"
     height="10.8457"
     rx="3.2641699"
     id="rect192"
     style="fill:#e6e6e6" />
  <rect
     x="110.88138"
     y="139.75168"
     width="102.23622"
     height="10.8457"
     rx="3.2641699"
     id="rect194"
     style="fill:#e6e6e6" />
</svg>
