<?xml version="1.0" encoding="UTF-8" standalone="no"?>
<svg
   xmlns:dc="http://purl.org/dc/elements/1.1/"
   xmlns:cc="http://creativecommons.org/ns#"
   xmlns:rdf="http://www.w3.org/1999/02/22-rdf-syntax-ns#"
   xmlns:svg="http://www.w3.org/2000/svg"
   xmlns="http://www.w3.org/2000/svg"
   xmlns:sodipodi="http://sodipodi.sourceforge.net/DTD/sodipodi-0.dtd"
   xmlns:inkscape="http://www.inkscape.org/namespaces/inkscape"
   viewBox="0 0 48 48"
   width="48px"
   height="48px"
   version="1.1"
   id="svg12"
   sodipodi:docname="gmail.svg"
   inkscape:version="0.92.5 (2060ec1f9f, 2020-04-08)">
  <metadata
     id="metadata18">
    <rdf:RDF>
      <cc:Work
         rdf:about="">
        <dc:format>image/svg+xml</dc:format>
        <dc:type
           rdf:resource="http://purl.org/dc/dcmitype/StillImage" />
      </cc:Work>
    </rdf:RDF>
  </metadata>
  <defs
     id="defs16" />
  <sodipodi:namedview
     pagecolor="#ffffff"
     bordercolor="#666666"
     borderopacity="1"
     objecttolerance="10"
     gridtolerance="10"
     guidetolerance="10"
     inkscape:pageopacity="0"
     inkscape:pageshadow="2"
     inkscape:window-width="640"
     inkscape:window-height="480"
     id="namedview14"
     showgrid="false"
     inkscape:zoom="4.9166667"
     inkscape:cx="20.847458"
     inkscape:cy="22.983051"
     inkscape:window-x="0"
     inkscape:window-y="27"
     inkscape:window-maximized="0"
     inkscape:current-layer="svg12" />
  <g
     id="g833"
     transform="matrix(1.1065376,0,0,1.1065376,-2.5569007,-2.5569007)">
    <path
       id="path2"
       d="m 45,16.2 -5,2.75 -5,4.75 V 40 h 7 c 1.657,0 3,-1.343 3,-3 z"
       inkscape:connector-curvature="0"
       style="fill:#4caf50" />
    <path
       id="path4"
       d="M 3,16.2 6.614,17.91 13,23.7 V 40 H 6 C 4.343,40 3,38.657 3,37 Z"
       inkscape:connector-curvature="0"
       style="fill:#1e88e5" />
    <polygon
       id="polygon6"
       points="13,11.2 12,17 13,23.7 24,31.95 35,23.7 36,17 35,11.2 24,19.45 "
       style="fill:#e53935" />
    <path
       id="path8"
       d="M 3,12.298 V 16.2 l 10,7.5 V 11.2 L 9.876,8.859 C 9.132,8.301 8.228,8 7.298,8 V 8 C 4.924,8 3,9.924 3,12.298 Z"
       inkscape:connector-curvature="0"
       style="fill:#c62828" />
    <path
       id="path10"
       d="M 45,12.298 V 16.2 L 35,23.7 V 11.2 L 38.124,8.859 C 38.868,8.301 39.772,8 40.702,8 V 8 C 43.076,8 45,9.924 45,12.298 Z"
       inkscape:connector-curvature="0"
       style="fill:#fbc02d" />
  </g>
</svg>
