<?xml version="1.0" encoding="UTF-8" standalone="no"?>
<svg
   xmlns:dc="http://purl.org/dc/elements/1.1/"
   xmlns:cc="http://creativecommons.org/ns#"
   xmlns:rdf="http://www.w3.org/1999/02/22-rdf-syntax-ns#"
   xmlns:svg="http://www.w3.org/2000/svg"
   xmlns="http://www.w3.org/2000/svg"
   xmlns:sodipodi="http://sodipodi.sourceforge.net/DTD/sodipodi-0.dtd"
   xmlns:inkscape="http://www.inkscape.org/namespaces/inkscape"
   data-name="Layer 1"
   width="809.64032"
   height="558.21466"
   viewBox="0 0 809.64034 558.21468"
   version="1.1"
   id="svg139"
   sodipodi:docname="mac.svg"
   inkscape:version="0.92.5 (2060ec1f9f, 2020-04-08)">
  <metadata
     id="metadata145">
    <rdf:RDF>
      <cc:Work
         rdf:about="">
        <dc:format>image/svg+xml</dc:format>
        <dc:type
           rdf:resource="http://purl.org/dc/dcmitype/StillImage" />
        <dc:title />
      </cc:Work>
    </rdf:RDF>
  </metadata>
  <defs
     id="defs143" />
  <sodipodi:namedview
     pagecolor="#ffffff"
     bordercolor="#666666"
     borderopacity="1"
     objecttolerance="10"
     gridtolerance="10"
     guidetolerance="10"
     inkscape:pageopacity="0"
     inkscape:pageshadow="2"
     inkscape:window-width="1360"
     inkscape:window-height="704"
     id="namedview141"
     showgrid="false"
     inkscape:zoom="0.60439251"
     inkscape:cx="245.09607"
     inkscape:cy="91.737973"
     inkscape:window-x="0"
     inkscape:window-y="27"
     inkscape:window-maximized="1"
     inkscape:current-layer="svg139" />
  <g
     id="g959"
     transform="translate(-62,5.9999837)">
    <path
       id="path2"
       transform="translate(-160.67983,-173.89266)"
       d="M 998.54278,726.10734 H 255.9092 a 24.9009,24.9009 0 0 1 -24.9009,-24.9009 v 0 q 403.8068,-46.93008 792.4354,0 v 0 a 24.90091,24.90091 0 0 1 -24.90092,24.9009 z"
       inkscape:connector-curvature="0"
       style="fill:#cccccc;stroke:#000000;stroke-opacity:1;stroke-width:1.8;stroke-miterlimit:4;stroke-dasharray:none" />
    <path
       id="path4"
       transform="translate(-160.67983,-173.89266)"
       d="m 1023.4437,702.67117 -792.4354,-1.46476 91.84049,-154.53222 0.43941,-0.73238 V 205.37035 a 31.47506,31.47506 0 0 1 31.47769,-31.47769 h 540.52592 a 31.47506,31.47506 0 0 1 31.47769,31.47769 v 342.915 z"
       inkscape:connector-curvature="0"
       style="fill:#e6e6e6;stroke:#000000;stroke-opacity:1;stroke-width:2;stroke-miterlimit:4;stroke-dasharray:none" />
    <path
       id="path6"
       transform="translate(-160.67983,-173.89266)"
       d="m 354.04817,195.86407 a 10.26484,10.26484 0 0 0 -10.25332,10.25332 V 516.6466 a 10.2653,10.2653 0 0 0 10.25332,10.25332 H 900.40381 A 10.26575,10.26575 0 0 0 910.65713,516.6466 V 206.11739 a 10.26529,10.26529 0 0 0 -10.25332,-10.25332 z"
       inkscape:connector-curvature="0"
       style="fill:#ffffff;stroke:#000000;stroke-opacity:1" />
    <path
       id="path8"
       transform="translate(-160.67983,-173.89266)"
       d="m 357.63886,567.91321 a 4.40643,4.40643 0 0 0 -3.99233,2.55761 l -28.29891,61.51994 a 4.39408,4.39408 0 0 0 3.99161,6.231 h 595.11114 a 4.39378,4.39378 0 0 0 3.92939,-6.35969 l -30.76,-61.51994 a 4.372,4.372 0 0 0 -3.92939,-2.42887 z"
       inkscape:connector-curvature="0"
       style="fill:#a5a5a5;fill-opacity:1" />
    <circle
       id="circle10"
       r="6.5914202"
       cy="10.25332"
       cx="464.34903"
       style="fill:#ffffff" />
    <path
       id="path12"
       d="m 343.55631,476.04714 a 8.7698172,4.401 0 0 0 -8.45428,3.25137 l -14.14512,26.36568 a 8.7555894,4.39386 0 0 0 8.45429,5.5372 h 269.00793 a 8.7544536,4.39329 0 0 0 8.27187,-5.83187 l -18.18557,-26.36568 a 8.7610095,4.39658 0 0 0 -8.27472,-2.9567 z"
       inkscape:connector-curvature="0"
       style="fill:#797979;fill-opacity:1;stroke-width:1.41162586" />
    <polygon
       id="polygon14"
       points="766.09,372.782 162.169,372.782 162.623,372.049 162.623,366.922 766.09,366.922 "
       style="fill:#cccccc" />
  </g>
</svg>
