<?xml version="1.0" standalone="no"?><svg xmlns:xlink="http://www.w3.org/1999/xlink" xmlns="http://www.w3.org/2000/svg" viewBox="0 0 1000 500" preserveAspectRatio="xMaxYMax slice"><g transform="scale(1.2953367875647668)"><rect x="0" y="0" width="772" height="386" fill="#ffffff"/><circle cx="48.25" cy="48.25" r="9.65" fill="#ffb5c7"/><circle cx="144.75" cy="48.25" r="9.65" fill="#ff89a5"/><circle cx="241.25" cy="48.25" r="9.65" fill="#ff4974"/><circle cx="337.75" cy="48.25" r="9.65" fill="#899df0"/><circle cx="434.25" cy="48.25" r="9.65" fill="#5a76ea"/><circle cx="530.75" cy="48.25" r="9.65" fill="#ff3a69"/><circle cx="627.25" cy="48.25" r="9.65" fill="#ff7697"/><circle cx="723.75" cy="48.25" r="9.65" fill="#ffbdcd"/><circle cx="48.25" cy="144.75" r="9.65" fill="#eff2fd"/><circle cx="144.75" cy="144.75" r="9.65" fill="#637deb"/><circle cx="241.25" cy="144.75" r="9.65" fill="#ffc6d4"/><circle cx="337.75" cy="144.75" r="9.65" fill="#ff6f91"/><circle cx="434.25" cy="144.75" r="9.65" fill="#4060e6"/><circle cx="530.75" cy="144.75" r="9.65" fill="#ff517b"/><circle cx="627.25" cy="144.75" r="9.65" fill="#fcfcff"/><circle cx="723.75" cy="144.75" r="9.65" fill="#8b9ef0"/><circle cx="48.25" cy="241.25" r="9.65" fill="#8599ef"/><circle cx="144.75" cy="241.25" r="9.65" fill="#e3e8fb"/><circle cx="241.25" cy="241.25" r="9.65" fill="#ffe5eb"/><circle cx="337.75" cy="241.25" r="9.65" fill="#ffccd8"/><circle cx="434.25" cy="241.25" r="9.65" fill="#3154e4"/><circle cx="530.75" cy="241.25" r="9.65" fill="#ffbccc"/><circle cx="627.25" cy="241.25" r="9.65" fill="#3b5ce6"/><circle cx="723.75" cy="241.25" r="9.65" fill="#afbdf5"/><circle cx="48.25" cy="337.75" r="9.65" fill="#ff99b1"/><circle cx="144.75" cy="337.75" r="9.65" fill="#c1cbf7"/><circle cx="241.25" cy="337.75" r="9.65" fill="#ffa0b6"/><circle cx="337.75" cy="337.75" r="9.65" fill="#8b9ef0"/><circle cx="434.25" cy="337.75" r="9.65" fill="#ff698d"/><circle cx="530.75" cy="337.75" r="9.65" fill="#dee4fb"/><circle cx="627.25" cy="337.75" r="9.65" fill="#ffd1dc"/><circle cx="723.75" cy="337.75" r="9.65" fill="#bfcaf7"/></g></svg>