<?xml version="1.0" encoding="UTF-8" standalone="no"?>
<svg
   xmlns:dc="http://purl.org/dc/elements/1.1/"
   xmlns:cc="http://creativecommons.org/ns#"
   xmlns:rdf="http://www.w3.org/1999/02/22-rdf-syntax-ns#"
   xmlns:svg="http://www.w3.org/2000/svg"
   xmlns="http://www.w3.org/2000/svg"
   xmlns:sodipodi="http://sodipodi.sourceforge.net/DTD/sodipodi-0.dtd"
   xmlns:inkscape="http://www.inkscape.org/namespaces/inkscape"
   data-name="Layer 1"
   width="721.11203"
   height="582.53467"
   viewBox="0 0 721.11203 582.53467"
   version="1.1"
   id="svg296"
   sodipodi:docname="maps (copia).svg"
   inkscape:version="0.92.5 (2060ec1f9f, 2020-04-08)">
  <metadata
     id="metadata302">
    <rdf:RDF>
      <cc:Work
         rdf:about="">
        <dc:format>image/svg+xml</dc:format>
        <dc:type
           rdf:resource="http://purl.org/dc/dcmitype/StillImage" />
      </cc:Work>
    </rdf:RDF>
  </metadata>
  <defs
     id="defs300" />
  <sodipodi:namedview
     pagecolor="#ffffff"
     bordercolor="#666666"
     borderopacity="1"
     objecttolerance="10"
     gridtolerance="10"
     guidetolerance="10"
     inkscape:pageopacity="0"
     inkscape:pageshadow="2"
     inkscape:window-width="1280"
     inkscape:window-height="987"
     id="namedview298"
     showgrid="false"
     inkscape:zoom="0.81025221"
     inkscape:cx="522.40931"
     inkscape:cy="618.31009"
     inkscape:window-x="1366"
     inkscape:window-y="0"
     inkscape:window-maximized="1"
     inkscape:current-layer="svg296" />
  <rect
     width="703.83423"
     height="314.5314"
     x="20.980736"
     y="46.514172"
     style="fill:#f6f5f4;stroke:#cdc7c2;stroke-width:5.33087444"
     id="rect4" />
  <rect
     width="653.3056"
     height="223.24501"
     x="66.623886"
     y="92.15744"
     ry="30.792414"
     style="fill:#f0f0f0;stroke:#cdc7c2;stroke-width:5.22806692"
     id="rect6" />
  <circle
     r="49.502502"
     cx="201.09364"
     cy="203.77997"
     style="fill:none;stroke:#303030;stroke-width:7.61576891"
     id="circle8" />
  <path
     d="m 361.02488,150.4696 c -16.7341,0 -30.46313,13.72907 -30.46313,30.46308 v 15.23154 H 322.946 c -4.21914,0 -7.61577,3.39664 -7.61577,7.61575 v 45.69463 c 0,4.21911 3.39663,7.61579 7.61577,7.61579 h 76.15771 c 4.21915,0 7.61575,-3.39668 7.61575,-7.61579 v -45.69463 c 0,-4.21911 -3.3966,-7.61575 -7.61575,-7.61575 h -7.61575 v -15.23154 c 0,-16.73401 -13.72903,-30.46308 -30.46308,-30.46308 z m 0,15.23154 c 8.50231,0 15.23149,6.72923 15.23149,15.23154 v 15.23154 h -30.46308 v -15.23154 c 0,-8.50231 6.72918,-15.23154 15.23159,-15.23154 z"
     style="fill:#12bc00;stroke-width:7.61576891"
     id="path10"
     inkscape:connector-curvature="0" />
  <rect
     width="258.09515"
     height="213.24153"
     x="457.64554"
     y="97.159286"
     style="fill:#ffffff;stroke-width:3.86619639"
     id="rect14" />
  <text
     x="483.54388"
     y="225.65509"
     style="font-size:106.62076569px;font-family:'Liberation Sans';fill:#808080;stroke-width:7.61576891"
     xml:space="preserve"
     id="text18"><tspan
       x="483.54388"
       y="225.65509"
       id="tspan16"
       style="stroke-width:7.61576891">https</tspan></text>
  <circle
     r="7.6157689"
     cx="201.09364"
     cy="180.93266"
     style="fill:#303030;stroke-width:7.61576891"
     id="circle24" />
  <rect
     width="15.231538"
     height="30.463076"
     x="193.47792"
     y="199.97211"
     style="fill:#303030;stroke-width:7.61576891"
     id="rect26" />
  <path
     d="m 341.98542,253.28251 83.77345,83.77346 -40.47011,2.34183 16.49233,40.48204 -14.10105,5.74159 -16.26274,-39.91851 -29.43188,29.43192 z"
     style="fill:#090909;stroke:#ffffff;stroke-width:7.61576891"
     id="path28"
     inkscape:connector-curvature="0" />
  <g
     transform="matrix(4.2503719,0,0,4.2503719,-4.5450989,13.378908)"
     id="g894">
    <rect
       id="rect12"
       style="fill-opacity:0.8;stroke-width:0.88022608"
       rx="3.5209043"
       y="93.723549"
       x="10.339531"
       height="35.209045"
       width="154.91978" />
    <text
       id="text22"
       style="font-size:12.32316494px;font-family:'Liberation Sans';fill:#ffffff;stroke-width:0.88022608"
       xml:space="preserve"
       y="115.72921"
       x="20.022015"><tspan
         style="stroke-width:0.88022608"
         id="tspan20"
         y="115.72921"
         x="20.022015">Verified by: Let’s Encrypt</tspan></text>
  </g>
</svg>
