<?xml version="1.0" encoding="UTF-8" standalone="no"?>
<svg
   xmlns:dc="http://purl.org/dc/elements/1.1/"
   xmlns:cc="http://creativecommons.org/ns#"
   xmlns:rdf="http://www.w3.org/1999/02/22-rdf-syntax-ns#"
   xmlns:svg="http://www.w3.org/2000/svg"
   xmlns="http://www.w3.org/2000/svg"
   xmlns:sodipodi="http://sodipodi.sourceforge.net/DTD/sodipodi-0.dtd"
   xmlns:inkscape="http://www.inkscape.org/namespaces/inkscape"
   id="visual"
   viewBox="0 0 900 600"
   width="900"
   height="600"
   version="1.1"
   sodipodi:docname="stacked-waves-haikei.svg"
   inkscape:version="0.92.5 (2060ec1f9f, 2020-04-08)">
  <metadata
     id="metadata15">
    <rdf:RDF>
      <cc:Work
         rdf:about="">
        <dc:format>image/svg+xml</dc:format>
        <dc:type
           rdf:resource="http://purl.org/dc/dcmitype/StillImage" />
      </cc:Work>
    </rdf:RDF>
  </metadata>
  <defs
     id="defs13" />
  <sodipodi:namedview
     pagecolor="#ffffff"
     bordercolor="#666666"
     borderopacity="1"
     objecttolerance="10"
     gridtolerance="10"
     guidetolerance="10"
     inkscape:pageopacity="0"
     inkscape:pageshadow="2"
     inkscape:window-width="1280"
     inkscape:window-height="987"
     id="namedview11"
     showgrid="false"
     inkscape:zoom="0.78666667"
     inkscape:cx="568.1144"
     inkscape:cy="326.26215"
     inkscape:window-x="1366"
     inkscape:window-y="0"
     inkscape:window-maximized="1"
     inkscape:current-layer="visual" />
  <path
     d="M0 145L30 135C60 125 120 105 180 103C240 101 300 117 360 117C420 117 480 101 540 99C600 97 660 109 720 115C780 121 840 121 870 121L900 121L900 0L870 0C840 0 780 0 720 0C660 0 600 0 540 0C480 0 420 0 360 0C300 0 240 0 180 0C120 0 60 0 30 0L0 0Z"
     fill="#ffffff"
     id="path2"
     style="fill:#ffffff" />
  <path
     d="M0 241L30 236C60 231 120 221 180 224C240 227 300 243 360 234C420 225 480 191 540 178C600 165 660 173 720 185C780 197 840 213 870 221L900 229L900 119L870 119C840 119 780 119 720 113C660 107 600 95 540 97C480 99 420 115 360 115C300 115 240 99 180 101C120 103 60 123 30 133L0 143Z"
     fill="#ffffff"
     id="path4"
     style="fill:#f9f9f9" />
  <path
     d="M0 367L30 384C60 401 120 435 180 436C240 437 300 405 360 389C420 373 480 373 540 384C600 395 660 417 720 423C780 429 840 419 870 414L900 409L900 227L870 219C840 211 780 195 720 183C660 171 600 163 540 176C480 189 420 223 360 232C300 241 240 225 180 222C120 219 60 229 30 234L0 239Z"
     fill="#f9f9f9"
     id="path6"
     style="fill:#f2f2f2" />
  <path
     d="M0 601L30 601C60 601 120 601 180 601C240 601 300 601 360 601C420 601 480 601 540 601C600 601 660 601 720 601C780 601 840 601 870 601L900 601L900 407L870 412C840 417 780 427 720 421C660 415 600 393 540 382C480 371 420 371 360 387C300 403 240 435 180 434C120 433 60 399 30 382L0 365Z"
     fill="#eeeeee"
     id="path8"
     style="fill:#e6e6e6" />
</svg>
