<?xml version="1.0" encoding="UTF-8" standalone="no"?>
<svg
   xmlns:dc="http://purl.org/dc/elements/1.1/"
   xmlns:cc="http://creativecommons.org/ns#"
   xmlns:rdf="http://www.w3.org/1999/02/22-rdf-syntax-ns#"
   xmlns:svg="http://www.w3.org/2000/svg"
   xmlns="http://www.w3.org/2000/svg"
   xmlns:sodipodi="http://sodipodi.sourceforge.net/DTD/sodipodi-0.dtd"
   xmlns:inkscape="http://www.inkscape.org/namespaces/inkscape"
   data-name="Layer 1"
   width="355"
   height="469.61218"
   viewBox="0 0 355 469.61216"
   version="1.1"
   id="svg102"
   sodipodi:docname="tablet.svg"
   inkscape:version="0.92.5 (2060ec1f9f, 2020-04-08)">
  <metadata
     id="metadata108">
    <rdf:RDF>
      <cc:Work
         rdf:about="">
        <dc:format>image/svg+xml</dc:format>
        <dc:type
           rdf:resource="http://purl.org/dc/dcmitype/StillImage" />
        <dc:title>mobile_devices</dc:title>
      </cc:Work>
    </rdf:RDF>
  </metadata>
  <defs
     id="defs106" />
  <sodipodi:namedview
     pagecolor="#ffffff"
     bordercolor="#666666"
     borderopacity="1"
     objecttolerance="10"
     gridtolerance="10"
     guidetolerance="10"
     inkscape:pageopacity="0"
     inkscape:pageshadow="2"
     inkscape:window-width="1360"
     inkscape:window-height="704"
     id="namedview104"
     showgrid="false"
     inkscape:zoom="0.36273529"
     inkscape:cx="-416.7618"
     inkscape:cy="-75.69253"
     inkscape:window-x="0"
     inkscape:window-y="27"
     inkscape:window-maximized="1"
     inkscape:current-layer="svg102" />
  <title
     id="title2">mobile_devices</title>
  <g
     id="g928"
     transform="translate(-533.3585,29.474356)">
    <path
       style="fill:#3f3d56"
       inkscape:connector-curvature="0"
       id="path20"
       d="m 876.42366,69.118746 a 2.82152,2.82152 0 0 0 2.82152,-2.82153 v -30.09628 a 2.79442,2.79442 0 0 0 -3.762,-2.64874 V -0.47880386 A 9.40506,9.40506 0 0 0 866.07811,-9.8838839 H 558.53214 a 9.40506,9.40506 0 0 0 -9.40507,9.40508004 V 412.40391 a 9.4051,9.4051 0 0 0 9.40507,9.40508 h 307.54594 a 9.4051,9.4051 0 0 0 9.40507,-9.40508 V 111.26875 a 2.79444,2.79444 0 0 0 3.762,-2.64874 V 78.523746 a 2.79444,2.79444 0 0 0 -3.762,-2.64874 v -6.92912 a 2.79526,2.79526 0 0 0 0.94051,0.17286 z" />
    <path
       style="fill:#ffffff"
       inkscape:connector-curvature="0"
       id="path22"
       d="m 847.26794,8.4559561 a 9.40508,9.40508 0 0 1 9.40509,9.4050899 V 394.06405 a 9.4051,9.4051 0 0 1 -9.40509,9.405 H 577.34228 a 9.40511,9.40511 0 0 1 -9.40506,-9.405 V 17.861046 a 9.40509,9.40509 0 0 1 9.40506,-9.4050899 h 269.92566" />
    <circle
       style="fill:#ffffff"
       id="circle24"
       r="3.7620299"
       cy="-0.47885573"
       cx="712.30511" />
    <rect
       style="fill:#00001c"
       id="rect26"
       height="22.97312"
       width="231.16914"
       y="57.806744"
       x="592.8302" />
    <rect
       style="fill:#e6e6e6"
       id="rect28"
       height="8.70119"
       width="231.16914"
       y="111.92078"
       x="592.8302" />
    <rect
       style="fill:#e6e6e6"
       id="rect30"
       height="8.70119"
       width="231.16914"
       y="138.47896"
       x="592.8302" />
    <rect
       style="fill:#e6e6e6"
       id="rect32"
       height="8.70119"
       width="119.44476"
       y="165.37352"
       x="592.8302" />
    <rect
       style="fill:#e6e6e6"
       id="rect34"
       height="8.70119"
       width="231.16914"
       y="192.74547"
       x="592.8302" />
    <rect
       style="fill:#e6e6e6"
       id="rect36"
       height="8.70119"
       width="231.16914"
       y="220.11742"
       x="592.8302" />
    <rect
       style="fill:#e6e6e6"
       id="rect38"
       height="8.70119"
       width="115.44476"
       y="247.48936"
       x="592.8302" />
    <rect
       style="fill:#e6e6e6"
       id="rect40"
       height="8.70119"
       width="231.16914"
       y="274.86127"
       x="592.8302" />
    <rect
       style="fill:#e6e6e6"
       id="rect42"
       height="8.70119"
       width="231.16914"
       y="302.23322"
       x="592.8302" />
    <rect
       style="fill:#00001c"
       id="rect44"
       height="24"
       width="73"
       y="335.8067"
       x="751.27496" />
  </g>
</svg>
