<?xml version="1.0" encoding="UTF-8" standalone="no"?>
<!-- Generator: Adobe Illustrator 16.0.0, SVG Export Plug-In . SVG Version: 6.00 Build 0)  -->

<svg
   xmlns:dc="http://purl.org/dc/elements/1.1/"
   xmlns:cc="http://creativecommons.org/ns#"
   xmlns:rdf="http://www.w3.org/1999/02/22-rdf-syntax-ns#"
   xmlns:svg="http://www.w3.org/2000/svg"
   xmlns="http://www.w3.org/2000/svg"
   xmlns:sodipodi="http://sodipodi.sourceforge.net/DTD/sodipodi-0.dtd"
   xmlns:inkscape="http://www.inkscape.org/namespaces/inkscape"
   version="1.1"
   x="0px"
   y="0px"
   width="217.5"
   height="220.5"
   viewBox="0 0 217.5 220.5"
   enable-background="new 0 0 293.5 293.5"
   xml:space="preserve"
   id="svg11"
   sodipodi:docname="telegram.svg"
   inkscape:version="0.92.5 (2060ec1f9f, 2020-04-08)"><metadata
   id="metadata17"><rdf:RDF><cc:Work
       rdf:about=""><dc:format>image/svg+xml</dc:format><dc:type
         rdf:resource="http://purl.org/dc/dcmitype/StillImage" /><dc:title /></cc:Work></rdf:RDF></metadata><defs
   id="defs15" /><sodipodi:namedview
   pagecolor="#ffffff"
   bordercolor="#666666"
   borderopacity="1"
   objecttolerance="10"
   gridtolerance="10"
   guidetolerance="10"
   inkscape:pageopacity="0"
   inkscape:pageshadow="2"
   inkscape:window-width="1366"
   inkscape:window-height="704"
   id="namedview13"
   showgrid="false"
   inkscape:snap-center="false"
   inkscape:snap-object-midpoints="false"
   inkscape:zoom="6.4327088"
   inkscape:cx="93.949698"
   inkscape:cy="4.6287211"
   inkscape:window-x="0"
   inkscape:window-y="27"
   inkscape:window-maximized="1"
   inkscape:current-layer="svg11" />


<g
   id="g823"
   transform="matrix(1,0,0,0.99837309,0,0.00286339)"><g
     transform="translate(0,-73)"
     enable-background="new    "
     id="background_1_">
</g><g
     transform="translate(-224.63449,-170.55538)"
     id="g852"><path
       d="m 333.40131,172.3154 a 108.73394,109.36999 0 1 0 0,218.73997 108.73394,109.36999 0 1 0 0,-218.73997 z"
       id="path2"
       inkscape:connector-curvature="0"
       style="fill:#29b6f6;stroke-width:5.45257473" /><path
       d="m 387.49646,232.46889 -20.3659,104.5905 c 0,0 -0.8753,4.77945 -6.76866,4.77945 -3.13154,0 -4.74625,-1.49838 -4.74625,-1.49838 l -44.11333,-36.81939 -21.5837,-10.94244 -27.69999,-7.40982 c 0,0 -4.93104,-1.43275 -4.93104,-5.5341 0,-3.41784 5.07239,-5.04742 5.07239,-5.04742 l 115.88865,-46.30728 c -0.005,-0.005 3.5393,-1.28509 6.12173,-1.27962 1.58749,0 3.39795,0.68356 3.39795,2.73425 0,1.36712 -0.27169,2.73425 -0.27169,2.73425 z"
       id="path4"
       inkscape:connector-curvature="0"
       style="fill:#ffffff;stroke-width:5.45257473" /><path
       d="m 327.96464,317.25796 -18.62614,18.4507 c 0,0 -0.81005,0.62892 -1.89197,0.65625 -0.37491,0.0102 -0.77742,-0.0481 -1.19063,-0.23534 l 5.24097,-32.61963 z"
       id="path6"
       inkscape:connector-curvature="0"
       style="fill:#b0bec5;stroke-width:5.45257473" /><path
       d="m 365.46152,249.9462 c -0.9188,-1.20306 -2.61506,-1.4218 -3.81111,-0.50856 l -71.74264,43.18474 c 0,0 11.44965,32.22039 13.19482,37.79824 1.75066,5.58333 3.15331,5.71457 3.15331,5.71457 l 5.24097,-32.61957 53.45361,-49.74147 c 1.19605,-0.91324 1.41896,-2.62488 0.51131,-3.82795 z"
       id="path8"
       inkscape:connector-curvature="0"
       style="fill:#cfd8dc;stroke-width:5.45257473" /></g></g></svg>