<svg xmlns="http://www.w3.org/2000/svg" xmlns:xlink="http://www.w3.org/1999/xlink" viewBox="0 0 404 140"><defs><style>.cls-1{fill:none}.cls-2{isolation:isolate}.cls-3{clip-path:url(#clip-path)}.cls-4{opacity:.8}.cls-5{fill:url(#linear-gradient)}.cls-6{fill:url(#linear-gradient-2)}.cls-7{fill:url(#linear-gradient-3)}.cls-8{fill:url(#linear-gradient-4)}.cls-9{fill:url(#linear-gradient-5)}.cls-10{fill:url(#linear-gradient-6)}.cls-11{fill:url(#linear-gradient-7)}.cls-12{fill:url(#linear-gradient-8)}.cls-13{fill:url(#linear-gradient-9)}.cls-14{fill:url(#linear-gradient-10)}.cls-15{fill:url(#linear-gradient-11)}.cls-16{fill:url(#linear-gradient-12)}.cls-17{fill:url(#linear-gradient-13)}.cls-18{fill:url(#linear-gradient-14)}.cls-19{fill:url(#linear-gradient-15)}.cls-20{fill:url(#linear-gradient-16)}.cls-21{fill:url(#linear-gradient-17)}.cls-22{fill:url(#linear-gradient-18)}.cls-23{fill:url(#linear-gradient-19)}.cls-24{fill:url(#linear-gradient-20)}.cls-25{fill:url(#linear-gradient-21)}.cls-26{fill:url(#linear-gradient-22)}.cls-27{fill:#f1f1f2}.cls-28{opacity:.3}.cls-130,.cls-28,.cls-347,.cls-486{mix-blend-mode:multiply}.cls-29{clip-path:url(#clip-path-2)}.cls-30{fill:#979da5}.cls-31{fill:#999ea6}.cls-32{fill:#9aa0a8}.cls-33{fill:#9ca1a9}.cls-34{fill:#9da3aa}.cls-35{fill:#9fa4ac}.cls-36{fill:#a0a6ad}.cls-37{fill:#a2a7ae}.cls-38{fill:#a3a8af}.cls-39{fill:#a5aab1}.cls-40{fill:#a6abb2}.cls-41{fill:#a7adb3}.cls-42{fill:#a9aeb5}.cls-43{fill:#aaafb6}.cls-44{fill:#acb1b7}.cls-45{fill:#adb2b8}.cls-46{fill:#afb3b9}.cls-47{fill:#b0b5bb}.cls-48{fill:#b1b6bc}.cls-49{fill:#b3b7bd}.cls-50{fill:#b4b9be}.cls-51{fill:#b6babf}.cls-52{fill:#b7bbc1}.cls-53{fill:#b8bcc2}.cls-54{fill:#babec3}.cls-55{fill:#bbbfc4}.cls-56{fill:#bcc0c5}.cls-57{fill:#bec1c6}.cls-58{fill:#bfc3c8}.cls-59{fill:#c0c4c9}.cls-60{fill:#c2c5ca}.cls-61{fill:#c3c6cb}.cls-62{fill:#c4c8cc}.cls-63{fill:#c5c9cd}.cls-64{fill:#c7cace}.cls-65{fill:#c8cbcf}.cls-66{fill:#c9ccd0}.cls-67{fill:#cacdd1}.cls-68{fill:#cccfd2}.cls-69{fill:#cdd0d4}.cls-70{fill:#ced1d5}.cls-71{fill:#cfd2d6}.cls-72{fill:#d0d3d7}.cls-73{fill:#d1d4d8}.cls-74{fill:#d3d5d9}.cls-75{fill:#d4d6da}.cls-76{fill:#d5d7db}.cls-77{fill:#d6d8dc}.cls-78{fill:#d7d9dd}.cls-79{fill:#d8dadd}.cls-80{fill:#d9dcde}.cls-81{fill:#dadddf}.cls-82{fill:#dbdee0}.cls-83{fill:#dddfe1}.cls-84{fill:#dee0e2}.cls-85{fill:#dfe0e3}.cls-86{fill:#e0e1e4}.cls-87{fill:#e1e2e5}.cls-88{fill:#e2e3e6}.cls-89{fill:#e3e4e6}.cls-90{fill:#e4e5e7}.cls-91{fill:#e5e6e8}.cls-92{fill:#e6e7e9}.cls-93{fill:#e6e8ea}.cls-94{fill:#e7e9eb}.cls-95{fill:#e8eaeb}.cls-96{fill:#e9ebec}.cls-97{fill:#eaebed}.cls-98{fill:#ebecee}.cls-99{fill:#ecedee}.cls-100{fill:#edeeef}.cls-101{fill:#eeeff0}.cls-102{fill:#eeeff1}.cls-103{fill:#eff0f1}.cls-104{fill:#f0f1f2}.cls-105{fill:#f1f2f3}.cls-106{fill:#f2f2f3}.cls-107{fill:#f2f3f4}.cls-108{fill:#f3f4f5}.cls-109{fill:#f4f4f5}.cls-110{fill:#f4f5f6}.cls-111{fill:#f5f6f6}.cls-112{fill:#f6f6f7}.cls-113{fill:#f7f7f8}.cls-114{fill:#f7f8f8}.cls-115{fill:#f8f8f9}.cls-116{fill:#f8f9f9}.cls-117{fill:#f9f9fa}.cls-118{fill:#fafafa}.cls-119{fill:#fafafb}.cls-120{fill:#fbfbfb}.cls-121{fill:#fbfbfc}.cls-122{fill:#fcfcfc}.cls-123{fill:#fcfdfd}.cls-124{fill:#fdfdfd}.cls-125{fill:#fdfdfe}.cls-126{fill:#fefefe}.cls-127{fill:#fff}.cls-128{fill:#e1e2e6}.cls-129{fill:#ea4335}.cls-130{opacity:.5}.cls-131{clip-path:url(#clip-path-3)}.cls-132{fill:#efc8cb}.cls-133{fill:#efc7cb}.cls-134{fill:#eec6ca}.cls-135{fill:#eec5c9}.cls-136{fill:#eec4c8}.cls-137{fill:#eec3c7}.cls-138{fill:#edc2c6}.cls-139{fill:#edc1c5}.cls-140{fill:#edc0c4}.cls-141{fill:#ecbfc3}.cls-142{fill:#ecbec2}.cls-143{fill:#ecbdc1}.cls-144{fill:#ecbcc0}.cls-145{fill:#ebbbbf}.cls-146{fill:#ebbabe}.cls-147{fill:#ebb9bd}.cls-148{fill:#eab8bc}.cls-149{fill:#eab7bc}.cls-150{fill:#eab6bb}.cls-151{fill:#eab5ba}.cls-152{fill:#e9b4b9}.cls-153{fill:#e9b3b8}.cls-154{fill:#e9b2b7}.cls-155{fill:#e8b1b6}.cls-156{fill:#e8b0b5}.cls-157{fill:#e8afb4}.cls-158{fill:#e7aeb3}.cls-159{fill:#e7adb2}.cls-160{fill:#e7acb1}.cls-161{fill:#e7abb0}.cls-162{fill:#e6aaaf}.cls-163{fill:#e6a9ae}.cls-164{fill:#e6a8ad}.cls-165{fill:#e5a7ad}.cls-166{fill:#e5a6ac}.cls-167{fill:#e5a5ab}.cls-168{fill:#e5a4aa}.cls-169{fill:#e4a3a9}.cls-170{fill:#e4a2a8}.cls-171{fill:#e4a1a7}.cls-172{fill:#e3a0a6}.cls-173{fill:#e39fa5}.cls-174{fill:#e39ea4}.cls-175{fill:#e39da3}.cls-176{fill:#e29ca2}.cls-177{fill:#e29ba1}.cls-178{fill:#e29aa0}.cls-179{fill:#e1999f}.cls-180{fill:#e1989e}.cls-181{fill:#e1979e}.cls-182{fill:#e1969d}.cls-183{fill:#e0959c}.cls-184{fill:#e0949b}.cls-185{fill:#e0939a}.cls-186{fill:#df9299}.cls-187{fill:#df9198}.cls-188{fill:#df9097}.cls-189{fill:#df8f96}.cls-190{fill:#de8d95}.cls-191{fill:#de8c94}.cls-192{fill:#de8b93}.cls-193{fill:#dd8a92}.cls-194{fill:#dd8991}.cls-195{fill:#dd8890}.cls-196{fill:#dc878f}.cls-197{fill:#dc868f}.cls-198{fill:#dc858e}.cls-199{fill:#dc848d}.cls-200{fill:#db838c}.cls-201{fill:#db828b}.cls-202{fill:#db818a}.cls-203{fill:#da8089}.cls-204{fill:#da7f88}.cls-205{fill:#da7e87}.cls-206{fill:#da7d86}.cls-207{fill:#d97c85}.cls-208{fill:#d97b84}.cls-209{fill:#d97a83}.cls-210{fill:#d87982}.cls-211{fill:#d87881}.cls-212{fill:#d87780}.cls-213{fill:#d87680}.cls-214{fill:#d7757f}.cls-215{fill:#d7747e}.cls-216{fill:#d7737d}.cls-217{fill:#d6727c}.cls-218{fill:#d6717b}.cls-219{fill:#d6707a}.cls-220{fill:#d66f79}.cls-221{fill:#d56e78}.cls-222{fill:#d56d77}.cls-223{fill:#d56c76}.cls-224{fill:#d46b75}.cls-225{fill:#d46a74}.cls-226{fill:#d46973}.cls-227{fill:#d36872}.cls-228{fill:#d36771}.cls-229{fill:#d36671}.cls-230{fill:#d36570}.cls-231{fill:#d2646f}.cls-232{fill:#d2636e}.cls-233{fill:#d2626d}.cls-234{fill:#d1616c}.cls-235{fill:#d1606b}.cls-236{fill:#d15f6a}.cls-237{fill:#d15e69}.cls-238{fill:#d05d68}.cls-239{fill:#d05c67}.cls-240{fill:#d05b66}.cls-241{fill:#cf5a65}.cls-242{fill:#cf5964}.cls-243{fill:#cf5863}.cls-244{fill:#cf5762}.cls-245{fill:#ce5662}.cls-246{fill:#ce5561}.cls-247{fill:#ce5460}.cls-248{fill:#cd535f}.cls-249{fill:#cd525e}.cls-250{fill:#cd515d}.cls-251{fill:#cd505c}.cls-252{fill:#cc4f5b}.cls-253{fill:#cc4e5a}.cls-254{fill:#cc4d59}.cls-255{fill:#cb4c58}.cls-256{fill:#cb4b57}.cls-257{fill:#cb4a56}.cls-258{fill:#ca4955}.cls-259{fill:#ca4854}.cls-260{fill:#ca4753}.cls-261{fill:#ca4653}.cls-262{fill:#c94552}.cls-263{fill:#c94451}.cls-264{fill:#c94350}.cls-265{fill:#c8424f}.cls-266{fill:#c8414e}.cls-267{fill:#c8404d}.cls-268{fill:#c83f4c}.cls-269{fill:#c73e4b}.cls-270{fill:#c73d4a}.cls-271{fill:#c73c49}.cls-272{fill:#c63b48}.cls-273{fill:#c63a47}.cls-274{fill:#c63946}.cls-275{fill:#c63845}.cls-276{fill:#c53744}.cls-277{fill:#c53644}.cls-278{fill:#c53543}.cls-279{fill:#c43442}.cls-280{fill:#c43341}.cls-281{fill:#c43240}.cls-282{fill:#c4313f}.cls-283{fill:#c3303e}.cls-284{fill:#c32f3d}.cls-285{fill:#c32e3c}.cls-286{fill:#c22d3b}.cls-287{fill:#c22c3a}.cls-288{fill:#c22b39}.cls-289{fill:#c12a38}.cls-290{fill:#c12937}.cls-291{fill:#c12836}.cls-292{fill:#c12735}.cls-293{fill:#c02635}.cls-294{fill:#c02534}.cls-295{fill:#c02433}.cls-296{fill:#bf2332}.cls-297{fill:#bf2231}.cls-298{fill:#bf2130}.cls-299{fill:#bf202f}.cls-300{fill:#be1f2e}.cls-301{fill:#be1e2d}.cls-302{fill:#df382b}.cls-303{clip-path:url(#clip-path-4)}.cls-304{fill:#f5f5f6}.cls-305{fill:#f4f5f5}.cls-306{fill:#e9eaec}.cls-307{fill:#e8e9eb}.cls-308{fill:#e7e8ea}.cls-309{fill:#e3e4e7}.cls-310{fill:#e0e2e4}.cls-311{fill:#dfe1e3}.cls-312{fill:#dcdee0}.cls-313{fill:#dbdde0}.cls-314{fill:#dadcdf}.cls-315{fill:#d9dbde}.cls-316{fill:#d7d9dc}.cls-317{fill:#d6d8db}.cls-318{fill:#d5d7da}.cls-319{fill:#d4d6d9}.cls-320{fill:#d2d4d8}.cls-321{fill:#d1d3d7}.cls-322{fill:#d0d2d6}.cls-323{fill:#cfd1d5}.cls-324{fill:#ced0d4}.cls-325{fill:#cdcfd3}.cls-326{fill:#ccced2}.cls-327{fill:#caced2}.cls-328{fill:#c9cdd1}.cls-329{fill:#c8ccd0}.cls-330{fill:#c7cbcf}.cls-331{fill:#c6cace}.cls-332{fill:#c3c7cb}.cls-333{fill:#c2c6cb}.cls-334{fill:#c1c5ca}.cls-335{fill:#e5a300}.cls-336{fill:#fbbc05}.cls-337{fill:#fabb05}.cls-338{fill:#dfe1e5}.cls-339{clip-path:url(#clip-path-5)}.cls-340{fill:#eff0f2}.cls-341{fill:#f0f1f3}.cls-342{fill:#f1f2f4}.cls-343{fill:#f2f3f5}.cls-344{fill:#f5f6f7}.cls-345{fill:#f6f7f8}.cls-346{fill:#34a853}.cls-347{opacity:.4}.cls-348{clip-path:url(#clip-path-6)}.cls-349{fill:#686c71}.cls-350{fill:#696d72}.cls-351{fill:#6b6f74}.cls-352{fill:#6c7075}.cls-353{fill:#6d7176}.cls-354{fill:#6f7377}.cls-355{fill:#707479}.cls-356{fill:#71757a}.cls-357{fill:#73767b}.cls-358{fill:#74787c}.cls-359{fill:#75797e}.cls-360{fill:#777a7f}.cls-361{fill:#787c80}.cls-362{fill:#797d81}.cls-363{fill:#7b7e83}.cls-364{fill:#7c7f84}.cls-365{fill:#7d8185}.cls-366{fill:#7f8286}.cls-367{fill:#808387}.cls-368{fill:#818489}.cls-369{fill:#82868a}.cls-370{fill:#84878b}.cls-371{fill:#85888c}.cls-372{fill:#86898d}.cls-373{fill:#888b8f}.cls-374{fill:#898c90}.cls-375{fill:#8a8d91}.cls-376{fill:#8b8e92}.cls-377{fill:#8d9093}.cls-378{fill:#8e9195}.cls-379{fill:#8f9296}.cls-380{fill:#909397}.cls-381{fill:#929498}.cls-382{fill:#939699}.cls-383{fill:#94979a}.cls-384{fill:#95989c}.cls-385{fill:#97999d}.cls-386{fill:#989b9e}.cls-387{fill:#999c9f}.cls-388{fill:#9a9da0}.cls-389{fill:#9b9ea1}.cls-390{fill:#9d9fa3}.cls-391{fill:#9ea0a4}.cls-392{fill:#9fa2a5}.cls-393{fill:#a0a3a6}.cls-394{fill:#a1a4a7}.cls-395{fill:#a3a5a8}.cls-396{fill:#a4a6a9}.cls-397{fill:#a5a7aa}.cls-398{fill:#a6a9ac}.cls-399{fill:#a7aaad}.cls-400{fill:#a9abae}.cls-401{fill:#aaacaf}.cls-402{fill:#abadb0}.cls-403{fill:#acaeb1}.cls-404{fill:#adafb2}.cls-405{fill:#aeb1b3}.cls-406{fill:#b0b2b4}.cls-407{fill:#b1b3b5}.cls-408{fill:#b2b4b6}.cls-409{fill:#b3b5b7}.cls-410{fill:#b4b6b9}.cls-411{fill:#b5b7ba}.cls-412{fill:#b6b8bb}.cls-413{fill:#b7b9bc}.cls-414{fill:#b9babd}.cls-415{fill:#babcbe}.cls-416{fill:#bbbdbf}.cls-417{fill:#bcbec0}.cls-418{fill:#bdbfc1}.cls-419{fill:#bec0c2}.cls-420{fill:#bfc1c3}.cls-421{fill:#c0c2c4}.cls-422{fill:#c1c3c5}.cls-423{fill:#c2c4c6}.cls-424{fill:#c3c5c7}.cls-425{fill:#c5c6c8}.cls-426{fill:#c6c7c9}.cls-427{fill:#c7c8ca}.cls-428{fill:#c8c9cb}.cls-429{fill:#c9cacc}.cls-430{fill:#cacbcd}.cls-431{fill:#cbccce}.cls-432{fill:#cccdcf}.cls-433{fill:#cdced0}.cls-434{fill:#cecfd1}.cls-435{fill:#cfd0d2}.cls-436{fill:#d0d1d3}.cls-437{fill:#d1d2d4}.cls-438{fill:#d2d3d5}.cls-439{fill:#d3d4d6}.cls-440{fill:#d4d5d6}.cls-441{fill:#d5d6d7}.cls-442{fill:#d6d7d8}.cls-443{fill:#d7d8d9}.cls-444{fill:#d8d9da}.cls-445{fill:#d9dadb}.cls-446{fill:#dadbdc}.cls-447{fill:#dbdcdd}.cls-448{fill:#dcdcde}.cls-449{fill:#dcdddf}.cls-450{fill:#dddedf}.cls-451{fill:#dedfe0}.cls-452{fill:#dfe0e1}.cls-453{fill:#e0e1e2}.cls-454{fill:#e1e2e3}.cls-455{fill:#e2e3e4}.cls-456{fill:#e3e4e4}.cls-457{fill:#e4e4e5}.cls-458{fill:#e5e5e6}.cls-459{fill:#e5e6e7}.cls-460{fill:#e6e7e8}.cls-461{fill:#e7e8e9}.cls-462{fill:#e8e9e9}.cls-463{fill:#e9e9ea}.cls-464{fill:#eaeaeb}.cls-465{fill:#eaebec}.cls-466{fill:#ebecec}.cls-467{fill:#eceded}.cls-468{fill:#ededee}.cls-469{fill:#eeeeef}.cls-470{fill:#eeefef}.cls-471{fill:#eff0f0}.cls-472{fill:#f0f0f1}.cls-473{fill:#f1f2f2}.cls-474{fill:#f3f3f4}.cls-475{fill:#f4f4f4}.cls-476{fill:#f6f6f6}.cls-477{fill:#f7f7f7}.cls-478{fill:#f8f8f8}.cls-479{fill:#f9f9f9}.cls-480{fill:#fafbfb}.cls-481{clip-path:url(#clip-path-7)}.cls-482{fill:#b9bdc3}.cls-483{fill:#babec4}.cls-484{fill:#bdc1c6}.cls-485{fill:#bec2c7}.cls-487{fill:#cdd0d5}.cls-488{fill:#babfc5}</style><clipPath id="clip-path"><path class="cls-1" d="M0 0h404v140H0z"/></clipPath><linearGradient id="linear-gradient" x1="-73.4" y1="99.3" x2="-73.4" y2="14.7" gradientTransform="matrix(-1 0 0 1 50.8 0)" gradientUnits="userSpaceOnUse"><stop offset="0" stop-color="#fff"/><stop offset=".7" stop-color="#f5f6f7"/><stop offset="1" stop-color="#eff0f2"/></linearGradient><linearGradient id="linear-gradient-2" x1="20.2" y1="107.8" x2="20.2" y2="6.9" xlink:href="#linear-gradient"/><linearGradient id="linear-gradient-3" x1="52.2" y1="96.7" x2="52.2" y2="11.5" xlink:href="#linear-gradient"/><linearGradient id="linear-gradient-4" x1="-34.8" y1="67.2" x2="-34.8" y2="11" xlink:href="#linear-gradient"/><linearGradient id="linear-gradient-5" x1="-6122.2" y1="103" x2="-6122.2" y2="58.3" gradientTransform="translate(6239)" xlink:href="#linear-gradient"/><linearGradient id="linear-gradient-6" x1="-2.8" y1="125.9" x2="-2.8" y2="43.5" gradientTransform="matrix(-1 0 0 1 50.8 0)" gradientUnits="userSpaceOnUse"><stop offset="0" stop-color="#fff"/><stop offset="1" stop-color="#eff0f2"/></linearGradient><linearGradient id="linear-gradient-7" x1="49.8" y1="126.1" x2="49.8" y2="55.5" gradientTransform="matrix(-1 0 0 1 50.8 0)" gradientUnits="userSpaceOnUse"><stop offset=".6" stop-color="#fff"/><stop offset=".8" stop-color="#fbfbfc"/><stop offset="1" stop-color="#eff0f2"/></linearGradient><linearGradient id="linear-gradient-8" x1="345.8" y1="126.1" x2="345.8" y2="65.3" gradientTransform="translate(-184.5)" xlink:href="#linear-gradient-7"/><linearGradient id="linear-gradient-9" x1="47.5" y1="139.5" x2="47.5" y2="87.6" gradientUnits="userSpaceOnUse"><stop offset="0" stop-color="#fff"/><stop offset=".1" stop-color="#f9f9fa"/><stop offset=".3" stop-color="#eaecee"/><stop offset=".6" stop-color="#e2e3e7"/><stop offset="1" stop-color="#dfe1e5"/></linearGradient><linearGradient id="linear-gradient-10" x1="372.7" y1="102.4" x2="372.7" y2="8.6" xlink:href="#linear-gradient"/><linearGradient id="linear-gradient-11" x1="388.5" y1="131.4" x2="388.5" y2="36.7" xlink:href="#linear-gradient-7"/><linearGradient id="linear-gradient-12" x1="181.4" y1="104.9" x2="181.4" y2="20.4" xlink:href="#linear-gradient"/><linearGradient id="linear-gradient-13" x1="275.1" y1="113.5" x2="275.1" y2="12.6" xlink:href="#linear-gradient"/><linearGradient id="linear-gradient-14" x1="-16743" y1="131.8" x2="-16743" y2="3.7" gradientTransform="matrix(-1 0 0 1 -16407.7 0)" xlink:href="#linear-gradient"/><linearGradient id="linear-gradient-15" x1="307" y1="102.4" x2="307" y2="17.2" xlink:href="#linear-gradient"/><linearGradient id="linear-gradient-16" x1="220" y1="72.8" x2="220" y2="16.7" xlink:href="#linear-gradient"/><linearGradient id="linear-gradient-17" x1="530" y1="170.2" x2="530" y2="60.1" gradientTransform="translate(-124.3)" gradientUnits="userSpaceOnUse"><stop offset="0" stop-color="#fff"/><stop offset=".5" stop-color="#fafafb"/><stop offset="1" stop-color="#eff0f2"/></linearGradient><linearGradient id="linear-gradient-18" x1="-16509.3" y1="131.8" x2="-16509.3" y2="47" gradientTransform="matrix(-1 0 0 1 -16150.4 0)" xlink:href="#linear-gradient"/><linearGradient id="linear-gradient-19" x1="-6377" y1="108.7" x2="-6377" y2="64" gradientTransform="matrix(-1 0 0 1 -6188.3 0)" xlink:href="#linear-gradient"/><linearGradient id="linear-gradient-20" x1="252" y1="131.6" x2="252" y2="49.2" xlink:href="#linear-gradient-6"/><linearGradient id="linear-gradient-21" x1="304.6" y1="131.8" x2="304.6" y2="61.2" xlink:href="#linear-gradient-7"/><linearGradient id="linear-gradient-22" x1="90.9" y1="131.8" x2="90.9" y2="71" gradientTransform="matrix(-1 0 0 1 235.3 0)" xlink:href="#linear-gradient-7"/><clipPath id="clip-path-2"><path class="cls-1" d="M171.7 57.1h53.1V140h-53.1z"/></clipPath><clipPath id="clip-path-3"><path class="cls-1" d="M207.3 114v1.5h7.2a15.8 15.8 0 0 0-11.4-14.6 25.7 25.7 0 0 1 4.3 13.1z"/></clipPath><clipPath id="clip-path-4"><path class="cls-1" d="M107.9 30.9h65.5V140h-65.5z"/></clipPath><clipPath id="clip-path-5"><path class="cls-1" d="M224.1 99.3H305v29.1h-80.9z"/></clipPath><clipPath id="clip-path-6"><path class="cls-1" d="M224.2 79.4H305v34.8h-80.8z"/></clipPath><clipPath id="clip-path-7"><path class="cls-1" d="M305 79.4L285.2 99H305V79.4z"/></clipPath></defs><g class="cls-2"><g class="cls-3" id="illys"><g class="cls-4"><path class="cls-5" d="M112.7 17.3v108.5h23V25.6l-8.1-8.3h-15z"/><path class="cls-6" d="M16.7 13.2v113h27.7v-113h-4.3v-7H21v7h-4.4z"/><path class="cls-7" d="M-12 46.5v79.6H9.3V11.3H7V17H-4v21.7l-7.8 7.8z"/><path class="cls-8" d="M80.7 11.3h9v18.2h12.2v-4h3.3v100.6H66V11.3h14.6z"/><path class="cls-9" d="M96.7 58.6v67.2H137V75h-8.3v-6h-24.4V58.6h-7.7z"/><path class="cls-10" d="M35.4 47.6v-4h40v4H77v78.3H30V47.6h5.3z"/><path class="cls-11" d="M-5 55.5h25v4.6h3.5v66h-28 6.7-23.7v-66L-5 55.5z"/><path class="cls-12" d="M166.4 65.3H145v4h-3v56.8H166h-5.8 20.4V73.7l-14.2-8.4z"/></g><path class="cls-13" d="M61.3 101a6 6 0 0 0-1.2-6.9 6 6 0 0 0-6.6-1.2 6 6 0 0 0-12 0 6 6 0 0 0-7.7 8.1 6 6 0 0 0-4 5.7 6 6 0 0 0 4 5.7 6 6 0 0 0 1.2 6.8 6 6 0 0 0 7.4 1 6 6 0 0 0 3.1 2.5v16.8h4v-16.8a6 6 0 0 0 3.2-2.6 6 6 0 0 0 7.4-.9 6 6 0 0 0 1.1-6.8 6 6 0 0 0 4-5.7 6 6 0 0 0-4-5.7z"/><g class="cls-4"><path class="cls-14" d="M382.6 21.5a10 10 0 1 0-19.9 0h-2.1v110.3h24.2V21.5z"/><path class="cls-15" d="M402.9 41v-4.3h-26.4V41H373v90.4h31V41H403z"/><path class="cls-16" d="M193 23v108.4h-23.2V31.2l8.3-8.2H193z"/><path class="cls-17" d="M289 18.9v112.9h-27.8V18.9h4.3v-7h19.1v7h4.3z"/><path class="cls-18" d="M321.4 11.8v120h27.8V3.8h-13.8l-14 8z"/><path class="cls-19" d="M317.6 52.2v79.6h-21.2V17h2.3v5.7h11v21.6l7.9 8z"/><path class="cls-20" d="M225 17h-9v18.2h-12.3v-4h-3.2v100.6h39V16.9H225z"/><path class="cls-21" d="M417.8 72v59.8h-24.3V72l4.8-4.7v-5.9h3.4v6H413l4.7 4.6z"/><path class="cls-22" d="M350.5 47h16.8l12 11.6v-2.3h2.4v75.5H336V60.9l14.5-14z"/><path class="cls-23" d="M209 64.2v67.2h-40.4V80.6h8.2v-6h24.4V64.2h7.8z"/><path class="cls-24" d="M270.2 53.2v-4h-39.9v4h-1.8v78.4h47V53.2h-5.3z"/><path class="cls-25" d="M310.6 61.2h-25v4.6H282v66h28-6.7 23.7v-66l-16.5-4.6z"/><path class="cls-26" d="M139.2 71h21.6v4h3v56.8h-24.2 5.8H125V79.4l14.2-8.4z"/></g><path class="cls-27" d="M171.7 57.1h52.9V140h-52.9z"/><g class="cls-28"><g class="cls-29"><path class="cls-30" d="M171.7 57.1h53.1v.4h-53.1zM171.7 57.5h53.1v.6h-53.1z"/><path class="cls-31" d="M171.7 58.1h53.1v.6h-53.1z"/><path class="cls-32" d="M171.7 58.6h53.1v.6h-53.1z"/><path class="cls-33" d="M171.7 59.2h53.1v.6h-53.1z"/><path class="cls-34" d="M171.7 59.8h53.1v.6h-53.1z"/><path class="cls-35" d="M171.7 60.4h53.1v.6h-53.1z"/><path class="cls-36" d="M171.7 60.9h53.1v.6h-53.1z"/><path class="cls-37" d="M171.7 61.5h53.1v.6h-53.1z"/><path class="cls-38" d="M171.7 62h53.1v.6h-53.1z"/><path class="cls-39" d="M171.7 62.6h53.1v.6h-53.1z"/><path class="cls-40" d="M171.7 63.2h53.1v.6h-53.1z"/><path class="cls-41" d="M171.7 63.8h53.1v.6h-53.1z"/><path class="cls-42" d="M171.7 64.3h53.1v.6h-53.1z"/><path class="cls-43" d="M171.7 64.9h53.1v.6h-53.1z"/><path class="cls-44" d="M171.7 65.5h53.1v.6h-53.1z"/><path class="cls-45" d="M171.7 66h53.1v.6h-53.1z"/><path class="cls-46" d="M171.7 66.6h53.1v.6h-53.1z"/><path class="cls-47" d="M171.7 67.2h53.1v.6h-53.1z"/><path class="cls-48" d="M171.7 67.7h53.1v.6h-53.1z"/><path class="cls-49" d="M171.7 68.3h53.1v.6h-53.1z"/><path class="cls-50" d="M171.7 68.9h53.1v.6h-53.1z"/><path class="cls-51" d="M171.7 69.4h53.1v.6h-53.1z"/><path class="cls-52" d="M171.7 70h53.1v.6h-53.1z"/><path class="cls-53" d="M171.7 70.6h53.1v.6h-53.1z"/><path class="cls-54" d="M171.7 71.2h53.1v.6h-53.1z"/><path class="cls-55" d="M171.7 71.7h53.1v.6h-53.1z"/><path class="cls-56" d="M171.7 72.3h53.1v.6h-53.1z"/><path class="cls-57" d="M171.7 72.8h53.1v.6h-53.1z"/><path class="cls-58" d="M171.7 73.4h53.1v.6h-53.1z"/><path class="cls-59" d="M171.7 74h53.1v.6h-53.1z"/><path class="cls-60" d="M171.7 74.5h53.1v.6h-53.1z"/><path class="cls-61" d="M171.7 75.1h53.1v.6h-53.1z"/><path class="cls-62" d="M171.7 75.7h53.1v.6h-53.1z"/><path class="cls-63" d="M171.7 76.3h53.1v.6h-53.1z"/><path class="cls-64" d="M171.7 76.8h53.1v.6h-53.1z"/><path class="cls-65" d="M171.7 77.4h53.1v.6h-53.1z"/><path class="cls-66" d="M171.7 78h53.1v.6h-53.1z"/><path class="cls-67" d="M171.7 78.5h53.1v.6h-53.1z"/><path class="cls-68" d="M171.7 79.1h53.1v.6h-53.1z"/><path class="cls-69" d="M171.7 79.7h53.1v.6h-53.1z"/><path class="cls-70" d="M171.7 80.2h53.1v.6h-53.1z"/><path class="cls-71" d="M171.7 80.8h53.1v.6h-53.1z"/><path class="cls-72" d="M171.7 81.4h53.1v.6h-53.1z"/><path class="cls-73" d="M171.7 81.9h53.1v.6h-53.1z"/><path class="cls-74" d="M171.7 82.5h53.1v.6h-53.1z"/><path class="cls-75" d="M171.7 83.1h53.1v.6h-53.1z"/><path class="cls-76" d="M171.7 83.7h53.1v.6h-53.1z"/><path class="cls-77" d="M171.7 84.2h53.1v.6h-53.1z"/><path class="cls-78" d="M171.7 84.8h53.1v.6h-53.1z"/><path class="cls-79" d="M171.7 85.3h53.1v.6h-53.1z"/><path class="cls-80" d="M171.7 85.9h53.1v.6h-53.1z"/><path class="cls-81" d="M171.7 86.5h53.1v.6h-53.1z"/><path class="cls-82" d="M171.7 87.1h53.1v.6h-53.1z"/><path class="cls-83" d="M171.7 87.6h53.1v.6h-53.1z"/><path class="cls-84" d="M171.7 88.2h53.1v.6h-53.1z"/><path class="cls-85" d="M171.7 88.8h53.1v.6h-53.1z"/><path class="cls-86" d="M171.7 89.3h53.1v.6h-53.1z"/><path class="cls-87" d="M171.7 89.9h53.1v.6h-53.1z"/><path class="cls-88" d="M171.7 90.5h53.1v.6h-53.1z"/><path class="cls-89" d="M171.7 91h53.1v.6h-53.1z"/><path class="cls-90" d="M171.7 91.6h53.1v.6h-53.1z"/><path class="cls-91" d="M171.7 92.2h53.1v.6h-53.1z"/><path class="cls-92" d="M171.7 92.7h53.1v.6h-53.1z"/><path class="cls-93" d="M171.7 93.3h53.1v.6h-53.1z"/><path class="cls-94" d="M171.7 93.9h53.1v.6h-53.1z"/><path class="cls-95" d="M171.7 94.4h53.1v.6h-53.1z"/><path class="cls-96" d="M171.7 95h53.1v.6h-53.1z"/><path class="cls-97" d="M171.7 95.6h53.1v.6h-53.1z"/><path class="cls-98" d="M171.7 96.2h53.1v.6h-53.1z"/><path class="cls-99" d="M171.7 96.7h53.1v.6h-53.1z"/><path class="cls-100" d="M171.7 97.3h53.1v.6h-53.1z"/><path class="cls-101" d="M171.7 97.8h53.1v.6h-53.1z"/><path class="cls-102" d="M171.7 98.4h53.1v.6h-53.1z"/><path class="cls-103" d="M171.7 99h53.1v.6h-53.1z"/><path class="cls-104" d="M171.7 99.6h53.1v.6h-53.1z"/><path class="cls-105" d="M171.7 100.1h53.1v.6h-53.1z"/><path class="cls-106" d="M171.7 100.7h53.1v.6h-53.1z"/><path class="cls-107" d="M171.7 101.3h53.1v.6h-53.1z"/><path class="cls-108" d="M171.7 101.8h53.1v.6h-53.1z"/><path class="cls-109" d="M171.7 102.4h53.1v.6h-53.1z"/><path class="cls-110" d="M171.7 103h53.1v.6h-53.1z"/><path class="cls-111" d="M171.7 103.5h53.1v.6h-53.1z"/><path class="cls-112" d="M171.7 104.1h53.1v.6h-53.1z"/><path class="cls-113" d="M171.7 104.7h53.1v.6h-53.1z"/><path class="cls-114" d="M171.7 105.2h53.1v.6h-53.1z"/><path class="cls-115" d="M171.7 105.8h53.1v.6h-53.1z"/><path class="cls-116" d="M171.7 106.4h53.1v.6h-53.1z"/><path class="cls-117" d="M171.7 107h53.1v.6h-53.1z"/><path class="cls-118" d="M171.7 107.5h53.1v.6h-53.1z"/><path class="cls-119" d="M171.7 108.1h53.1v.6h-53.1z"/><path class="cls-120" d="M171.7 108.7h53.1v.6h-53.1z"/><path class="cls-121" d="M171.7 109.2h53.1v.6h-53.1z"/><path class="cls-122" d="M171.7 109.8h53.1v.6h-53.1zM171.7 110.4h53.1v.6h-53.1z"/><path class="cls-123" d="M171.7 110.9h53.1v.6h-53.1z"/><path class="cls-124" d="M171.7 111.5h53.1v.6h-53.1z"/><path class="cls-125" d="M171.7 112.1h53.1v.6h-53.1z"/><path class="cls-126" d="M171.7 112.6h53.1v.6h-53.1zM171.7 113.2h53.1v.6h-53.1zM171.7 113.8h53.1v.6h-53.1z"/><path class="cls-127" d="M171.7 114.3h53.1v.6h-53.1zM171.7 114.9h53.1v.6h-53.1zM171.7 115.5h53.1v.6h-53.1z"/><path class="cls-127" d="M171.7 116h53.1v.6h-53.1zM171.7 116.6h53.1v23.3h-53.1z"/></g></g><path class="cls-30" d="M225 61.5h-53.3a.8.8 0 0 1 0-1.5H225a.8.8 0 0 1 0 1.5z"/><path class="cls-127" d="M182.7 115h15v24.9h-15zM199.5 115h15v24.9h-15z"/><path class="cls-128" d="M197.8 110.2h1.5V140h-1.5z"/><path class="cls-129" d="M214.5 115.5a15.8 15.8 0 0 0-15.8-15.2h-.2a15.8 15.8 0 0 0-15.8 15.2z"/><g class="cls-130"><g class="cls-131"><path class="cls-133" d="M203.1 100.9h.1v14.6h-.1z"/><path class="cls-134" d="M203.2 100.9h.1v14.6h-.1z"/><path class="cls-135" d="M203.2 100.9h.1v14.6h-.1z"/><path class="cls-136" d="M203.3 100.9h.1v14.6h-.1z"/><path class="cls-137" d="M203.3 100.9h.1v14.6h-.1z"/><path class="cls-138" d="M203.4 100.9h.1v14.6h-.1z"/><path class="cls-139" d="M203.4 100.9h.1v14.6h-.1z"/><path class="cls-140" d="M203.5 100.9h.1v14.6h-.1z"/><path class="cls-141" d="M203.5 100.9h.1v14.6h-.1z"/><path class="cls-142" d="M203.6 100.9h.1v14.6h-.1z"/><path class="cls-143" d="M203.6 100.9h.1v14.6h-.1z"/><path class="cls-144" d="M203.7 100.9h.1v14.6h-.1z"/><path class="cls-145" d="M203.7 100.9h.1v14.6h-.1z"/><path class="cls-146" d="M203.8 100.9h.1v14.6h-.1z"/><path class="cls-147" d="M203.8 100.9h.1v14.6h-.1z"/><path class="cls-148" d="M203.9 100.9h.1v14.6h-.1z"/><path class="cls-149" d="M203.9 100.9h.1v14.6h-.1z"/><path class="cls-150" d="M204 100.9h.1v14.6h-.1z"/><path class="cls-151" d="M204 100.9h.1v14.6h-.1z"/><path class="cls-152" d="M204.1 100.9h.1v14.6h-.1z"/><path class="cls-153" d="M204.1 100.9h.1v14.6h-.1z"/><path class="cls-154" d="M204.2 100.9h.1v14.6h-.1z"/><path class="cls-155" d="M204.2 100.9h.1v14.6h-.1z"/><path class="cls-156" d="M204.3 100.9h.1v14.6h-.1z"/><path class="cls-157" d="M204.3 100.9h.1v14.6h-.1z"/><path class="cls-158" d="M204.4 100.9h.1v14.6h-.1z"/><path class="cls-159" d="M204.4 100.9h.1v14.6h-.1z"/><path class="cls-160" d="M204.5 100.9h.1v14.6h-.1z"/><path class="cls-161" d="M204.5 100.9h.1v14.6h-.1z"/><path class="cls-162" d="M204.6 100.9h.1v14.6h-.1z"/><path class="cls-163" d="M204.6 100.9h.1v14.6h-.1z"/><path class="cls-164" d="M204.7 100.9h.1v14.6h-.1z"/><path class="cls-165" d="M204.7 100.9h.1v14.6h-.1z"/><path class="cls-166" d="M204.8 100.9h.1v14.6h-.1z"/><path class="cls-167" d="M204.8 100.9h.1v14.6h-.1z"/><path class="cls-168" d="M204.9 100.9h.1v14.6h-.1z"/><path class="cls-169" d="M204.9 100.9h.1v14.6h-.1z"/><path class="cls-170" d="M205 100.9h.1v14.6h-.1z"/><path class="cls-171" d="M205 100.9h.1v14.6h-.1z"/><path class="cls-172" d="M205.1 100.9h.1v14.6h-.1z"/><path class="cls-173" d="M205.1 100.9h.1v14.6h-.1z"/><path class="cls-174" d="M205.2 100.9h.1v14.6h-.1z"/><path class="cls-175" d="M205.2 100.9h.1v14.6h-.1z"/><path class="cls-176" d="M205.3 100.9h.1v14.6h-.1z"/><path class="cls-177" d="M205.3 100.9h.1v14.6h-.1z"/><path class="cls-178" d="M205.4 100.9h.1v14.6h-.1z"/><path class="cls-179" d="M205.4 100.9h.1v14.6h-.1z"/><path class="cls-180" d="M205.5 100.9h.1v14.6h-.1z"/><path class="cls-181" d="M205.6 100.9h.1v14.6h-.1z"/><path class="cls-182" d="M205.6 100.9h.1v14.6h-.1z"/><path class="cls-183" d="M205.7 100.9h.1v14.6h-.1z"/><path class="cls-184" d="M205.7 100.9h.1v14.6h-.1z"/><path class="cls-185" d="M205.8 100.9h.1v14.6h-.1z"/><path class="cls-186" d="M205.8 100.9h.1v14.6h-.1z"/><path class="cls-187" d="M205.8 100.9h.1v14.6h-.1z"/><path class="cls-188" d="M205.9 100.9h.1v14.6h-.1z"/><path class="cls-189" d="M206 100.9h.1v14.6h-.1z"/><path class="cls-190" d="M206 100.9h.1v14.6h-.1z"/><path class="cls-191" d="M206.1 100.9h.1v14.6h-.1z"/><path class="cls-192" d="M206.1 100.9h.1v14.6h-.1z"/><path class="cls-193" d="M206.2 100.9h.1v14.6h-.1z"/><path class="cls-194" d="M206.2 100.9h.1v14.6h-.1z"/><path class="cls-195" d="M206.3 100.9h.1v14.6h-.1z"/><path class="cls-196" d="M206.3 100.9h.1v14.6h-.1z"/><path class="cls-197" d="M206.4 100.9h.1v14.6h-.1z"/><path class="cls-198" d="M206.4 100.9h.1v14.6h-.1z"/><path class="cls-199" d="M206.5 100.9h.1v14.6h-.1z"/><path class="cls-200" d="M206.5 100.9h.1v14.6h-.1z"/><path class="cls-201" d="M206.6 100.9h.1v14.6h-.1z"/><path class="cls-202" d="M206.6 100.9h.1v14.6h-.1z"/><path class="cls-203" d="M206.7 100.9h.1v14.6h-.1z"/><path class="cls-204" d="M206.7 100.9h.1v14.6h-.1z"/><path class="cls-205" d="M206.8 100.9h.1v14.6h-.1z"/><path class="cls-206" d="M206.8 100.9h.1v14.6h-.1z"/><path class="cls-207" d="M206.9 100.9h.1v14.6h-.1z"/><path class="cls-208" d="M206.9 100.9h.1v14.6h-.1z"/><path class="cls-209" d="M207 100.9h.1v14.6h-.1z"/><path class="cls-210" d="M207 100.9h.1v14.6h-.1z"/><path class="cls-211" d="M207.1 100.9h.1v14.6h-.1z"/><path class="cls-212" d="M207.1 100.9h.1v14.6h-.1z"/><path class="cls-213" d="M207.2 100.9h.1v14.6h-.1z"/><path class="cls-214" d="M207.2 100.9h.1v14.6h-.1z"/><path class="cls-215" d="M207.3 100.9h.1v14.6h-.1z"/><path class="cls-216" d="M207.3 100.9h.1v14.6h-.1z"/><path class="cls-217" d="M207.4 100.9h.1v14.6h-.1z"/><path class="cls-218" d="M207.4 100.9h.1v14.6h-.1z"/><path class="cls-219" d="M207.5 100.9h.1v14.6h-.1z"/><path class="cls-220" d="M207.5 100.9h.1v14.6h-.1z"/><path class="cls-221" d="M207.6 100.9h.1v14.6h-.1z"/><path class="cls-222" d="M207.6 100.9h.1v14.6h-.1z"/><path class="cls-223" d="M207.7 100.9h.1v14.6h-.1z"/><path class="cls-224" d="M207.7 100.9h.1v14.6h-.1z"/><path class="cls-225" d="M207.8 100.9h.1v14.6h-.1z"/><path class="cls-226" d="M207.8 100.9h.1v14.6h-.1z"/><path class="cls-227" d="M207.9 100.9h.1v14.6h-.1z"/><path class="cls-228" d="M207.9 100.9h.1v14.6h-.1z"/><path class="cls-229" d="M208 100.9h.1v14.6h-.1z"/><path class="cls-230" d="M208 100.9h.1v14.6h-.1z"/><path class="cls-231" d="M208.1 100.9h.1v14.6h-.1z"/><path class="cls-232" d="M208.1 100.9h.1v14.6h-.1z"/><path class="cls-233" d="M208.2 100.9h.1v14.6h-.1z"/><path class="cls-234" d="M208.2 100.9h.1v14.6h-.1z"/><path class="cls-235" d="M208.3 100.9h.1v14.6h-.1z"/><path class="cls-236" d="M208.3 100.9h.1v14.6h-.1z"/><path class="cls-237" d="M208.4 100.9h.1v14.6h-.1z"/><path class="cls-238" d="M208.4 100.9h.1v14.6h-.1z"/><path class="cls-239" d="M208.5 100.9h.1v14.6h-.1z"/><path class="cls-240" d="M208.6 100.9h.1v14.6h-.1z"/><path class="cls-241" d="M208.6 100.9h.1v14.6h-.1z"/><path class="cls-242" d="M208.7 100.9h.1v14.6h-.1z"/><path class="cls-243" d="M208.7 100.9h.1v14.6h-.1z"/><path class="cls-244" d="M208.8 100.9h.1v14.6h-.1z"/><path class="cls-245" d="M208.8 100.9h.1v14.6h-.1z"/><path class="cls-246" d="M208.8 100.9h.1v14.6h-.1z"/><path class="cls-247" d="M208.9 100.9h.1v14.6h-.1z"/><path class="cls-248" d="M209 100.9h.1v14.6h-.1z"/><path class="cls-249" d="M209 100.9h.1v14.6h-.1z"/><path class="cls-250" d="M209.1 100.9h.1v14.6h-.1z"/><path class="cls-251" d="M209.1 100.9h.1v14.6h-.1z"/><path class="cls-252" d="M209.2 100.9h.1v14.6h-.1z"/><path class="cls-253" d="M209.2 100.9h.1v14.6h-.1z"/><path class="cls-254" d="M209.3 100.9h.1v14.6h-.1z"/><path class="cls-255" d="M209.3 100.9h.1v14.6h-.1z"/><path class="cls-256" d="M209.4 100.9h.1v14.6h-.1z"/><path class="cls-257" d="M209.4 100.9h.1v14.6h-.1z"/><path class="cls-258" d="M209.5 100.9h.1v14.6h-.1z"/><path class="cls-259" d="M209.5 100.9h.1v14.6h-.1z"/><path class="cls-260" d="M209.6 100.9h.1v14.6h-.1z"/><path class="cls-261" d="M209.6 100.9h.1v14.6h-.1z"/><path class="cls-262" d="M209.7 100.9h.1v14.6h-.1z"/><path class="cls-263" d="M209.7 100.9h.1v14.6h-.1z"/><path class="cls-264" d="M209.8 100.9h.1v14.6h-.1z"/><path class="cls-265" d="M209.8 100.9h.1v14.6h-.1z"/><path class="cls-266" d="M209.9 100.9h.1v14.6h-.1z"/><path class="cls-267" d="M209.9 100.9h.1v14.6h-.1z"/><path class="cls-268" d="M210 100.9h.1v14.6h-.1z"/><path class="cls-269" d="M210 100.9h.1v14.6h-.1z"/><path class="cls-270" d="M210.1 100.9h.1v14.6h-.1z"/><path class="cls-271" d="M210.1 100.9h.1v14.6h-.1z"/><path class="cls-272" d="M210.2 100.9h.1v14.6h-.1z"/><path class="cls-273" d="M210.2 100.9h.1v14.6h-.1z"/><path class="cls-274" d="M210.3 100.9h.1v14.6h-.1z"/><path class="cls-275" d="M210.3 100.9h.1v14.6h-.1z"/><path class="cls-276" d="M210.4 100.9h.1v14.6h-.1z"/><path class="cls-277" d="M210.4 100.9h.1v14.6h-.1z"/><path class="cls-278" d="M210.5 100.9h.1v14.6h-.1z"/><path class="cls-279" d="M210.5 100.9h.1v14.6h-.1z"/><path class="cls-280" d="M210.6 100.9h.1v14.6h-.1z"/><path class="cls-281" d="M210.6 100.9h.1v14.6h-.1z"/><path class="cls-282" d="M210.7 100.9h.1v14.6h-.1z"/><path class="cls-283" d="M210.7 100.9h.1v14.6h-.1z"/><path class="cls-284" d="M210.8 100.9h.1v14.6h-.1z"/><path class="cls-285" d="M210.8 100.9h.1v14.6h-.1z"/><path class="cls-286" d="M210.9 100.9h.1v14.6h-.1z"/><path class="cls-287" d="M210.9 100.9h.1v14.6h-.1z"/><path class="cls-288" d="M211 100.9h.1v14.6h-.1z"/><path class="cls-289" d="M211 100.9h.1v14.6h-.1z"/><path class="cls-290" d="M211.1 100.9h.1v14.6h-.1z"/><path class="cls-291" d="M211.1 100.9h.1v14.6h-.1z"/><path class="cls-292" d="M211.2 100.9h.1v14.6h-.1z"/><path class="cls-293" d="M211.2 100.9h.1v14.6h-.1z"/><path class="cls-294" d="M211.3 100.9h.1v14.6h-.1z"/><path class="cls-295" d="M211.3 100.9h.1v14.6h-.1z"/><path class="cls-296" d="M211.4 100.9h.1v14.6h-.1z"/><path class="cls-297" d="M211.4 100.9h.1v14.6h-.1z"/><path class="cls-298" d="M211.5 100.9h.1v14.6h-.1z"/><path class="cls-299" d="M211.6 100.9h.1v14.6h-.1z"/><path class="cls-300" d="M211.6 100.9h.1v14.6h-.1z"/><path class="cls-301" d="M211.7 100.9h.1v14.6h-.1z"/><path class="cls-301" d="M211.7 100.9h2.8v14.6h-2.8z"/></g></g><rect class="cls-127" x="182.7" y="71.1" width="31.8" height="14.3" rx="7.1" ry="7.1"/><path class="cls-30" d="M194.3 129.2a.8.8 0 0 1-.8-.7v-5.7a.8.8 0 0 1 .8-.7.8.8 0 0 1 .7.7v5.7a.7.7 0 0 1-.8.7zM202.8 129.2a.8.8 0 0 1-.8-.7v-5.7a.8.8 0 0 1 .8-.7.8.8 0 0 1 .7.7v5.7a.7.7 0 0 1-.7.7z"/><path class="cls-302" d="M207 80.5a3.3 3.3 0 0 1-2.7-1.8c-.5-.8-.9-1.2-1.5-1.2s-1 .4-1.5 1.2a3 3 0 0 1-5.4 0c-.5-.8-.8-1.2-1.5-1.2s-1 .4-1.5 1.2a3.3 3.3 0 0 1-2.7 1.8.8.8 0 0 1-.7-.8.7.7 0 0 1 .7-.7c.7 0 1-.4 1.5-1.2a3 3 0 0 1 5.4 0c.6.8.9 1.2 1.5 1.2s1-.4 1.5-1.2a3 3 0 0 1 5.4 0c.5.8.9 1.2 1.5 1.2a.7.7 0 0 1 .7.8.8.8 0 0 1-.7.7z"/><path class="cls-128" d="M107.9 30.9h65.5V140h-65.5z"/><g class="cls-130"><g class="cls-303"><path class="cls-127" d="M107.9 30.9h65.5v51.7h-65.5zM107.9 82.6h65.5v.9h-65.5z"/><path class="cls-126" d="M107.9 83.5h65.5v.9h-65.5z"/><path class="cls-124" d="M107.9 84.4h65.5v.9h-65.5z"/><path class="cls-122" d="M107.9 85.3h65.5v.9h-65.5z"/><path class="cls-121" d="M107.9 86.2h65.5v.9h-65.5z"/><path class="cls-119" d="M107.9 87.1h65.5v.9h-65.5z"/><path class="cls-117" d="M107.9 88h65.5v.9h-65.5z"/><path class="cls-115" d="M107.9 89h65.5v.9h-65.5z"/><path class="cls-113" d="M107.9 89.9h65.5v.9h-65.5z"/><path class="cls-112" d="M107.9 90.8h65.5v.9h-65.5z"/><path class="cls-304" d="M107.9 91.7h65.5v.9h-65.5z"/><path class="cls-305" d="M107.9 92.6h65.5v.9h-65.5z"/><path class="cls-108" d="M107.9 93.5h65.5v.9h-65.5z"/><path class="cls-107" d="M107.9 94.5h65.5v.9h-65.5z"/><path class="cls-105" d="M107.9 95.4h65.5v.9h-65.5z"/><path class="cls-104" d="M107.9 96.3h65.5v.9h-65.5z"/><path class="cls-103" d="M107.9 97.2h65.5v.9h-65.5z"/><path class="cls-101" d="M107.9 98.1h65.5v.9h-65.5z"/><path class="cls-100" d="M107.9 99h65.5v.9h-65.5z"/><path class="cls-99" d="M107.9 99.9h65.5v.9h-65.5z"/><path class="cls-98" d="M107.9 100.8h65.5v.9h-65.5z"/><path class="cls-97" d="M107.9 101.8h65.5v.9h-65.5z"/><path class="cls-306" d="M107.9 102.7h65.5v.9h-65.5z"/><path class="cls-307" d="M107.9 103.6h65.5v.9h-65.5z"/><path class="cls-308" d="M107.9 104.5h65.5v.9h-65.5z"/><path class="cls-92" d="M107.9 105.4h65.5v.9h-65.5z"/><path class="cls-91" d="M107.9 106.3h65.5v.9h-65.5z"/><path class="cls-90" d="M107.9 107.2h65.5v.9h-65.5z"/><path class="cls-309" d="M107.9 108.2h65.5v.9h-65.5z"/><path class="cls-88" d="M107.9 109.1h65.5v.9h-65.5z"/><path class="cls-87" d="M107.9 110h65.5v.9h-65.5z"/><path class="cls-310" d="M107.9 110.9h65.5v.9h-65.5z"/><path class="cls-311" d="M107.9 111.8h65.5v.9h-65.5z"/><path class="cls-84" d="M107.9 112.7h65.5v.9h-65.5z"/><path class="cls-83" d="M107.9 113.6h65.5v.9h-65.5z"/><path class="cls-312" d="M107.9 114.5h65.5v.9h-65.5z"/><path class="cls-313" d="M107.9 115.5h65.5v.9h-65.5z"/><path class="cls-314" d="M107.9 116.4h65.5v.9h-65.5z"/><path class="cls-315" d="M107.9 117.3h65.5v.9h-65.5z"/><path class="cls-79" d="M107.9 118.2h65.5v.9h-65.5z"/><path class="cls-316" d="M107.9 119.1h65.5v.9h-65.5z"/><path class="cls-317" d="M107.9 120h65.5v.9h-65.5z"/><path class="cls-318" d="M107.9 120.9h65.5v.9h-65.5z"/><path class="cls-319" d="M107.9 121.9h65.5v.9h-65.5z"/><path class="cls-74" d="M107.9 122.8h65.5v.9h-65.5z"/><path class="cls-320" d="M107.9 123.7h65.5v.9h-65.5z"/><path class="cls-321" d="M107.9 124.6h65.5v.9h-65.5z"/><path class="cls-322" d="M107.9 125.5h65.5v.9h-65.5z"/><path class="cls-323" d="M107.9 126.4h65.5v.9h-65.5z"/><path class="cls-324" d="M107.9 127.3h65.5v.9h-65.5z"/><path class="cls-325" d="M107.9 128.3h65.5v.9h-65.5z"/><path class="cls-326" d="M107.9 129.2h65.5v.9h-65.5z"/><path class="cls-327" d="M107.9 130.1h65.5v.9h-65.5z"/><path class="cls-328" d="M107.9 131h65.5v.9h-65.5z"/><path class="cls-329" d="M107.9 131.9h65.5v.9h-65.5z"/><path class="cls-330" d="M107.9 132.8h65.5v.9h-65.5z"/><path class="cls-331" d="M107.9 133.7h65.5v.9h-65.5z"/><path class="cls-63" d="M107.9 134.7h65.5v.9h-65.5z"/><path class="cls-62" d="M107.9 135.6h65.5v.9h-65.5z"/><path class="cls-332" d="M107.9 136.5h65.5v.9h-65.5z"/><path class="cls-333" d="M107.9 137.4h65.5v.9h-65.5z"/><path class="cls-334" d="M107.9 138.3h65.5v.9h-65.5z"/><path class="cls-59" d="M107.9 139.2h65.5v.7h-65.5z"/></g></g><path class="cls-30" d="M138.3 61.8h-9.7a.8.8 0 0 1-.7-.8V50.2a5.3 5.3 0 0 1 5.3-5.3h.5a5.3 5.3 0 0 1 5.3 5.3V61a.8.8 0 0 1-.7.8zm-9-1.5h8.2v-10a3.9 3.9 0 0 0-3.8-4h-.5a3.9 3.9 0 0 0-3.9 4zM124.3 61.8h-9.7a.8.8 0 0 1-.8-.8V50.2a5.3 5.3 0 0 1 5.4-5.3h.5a5.3 5.3 0 0 1 5.3 5.3V61a.8.8 0 0 1-.7.8zm-9-1.5h8.2v-10a3.9 3.9 0 0 0-3.8-4h-.5a3.9 3.9 0 0 0-3.9 4zM152.3 61.8h-9.7a.8.8 0 0 1-.7-.8V50.2a5.3 5.3 0 0 1 5.3-5.3h.5a5.3 5.3 0 0 1 5.3 5.3V61a.8.8 0 0 1-.7.8zm-9-1.5h8.3v-10a3.9 3.9 0 0 0-3.9-4h-.5a3.9 3.9 0 0 0-3.8 4zM166.3 61.8h-9.7a.8.8 0 0 1-.7-.8V50.2a5.3 5.3 0 0 1 5.3-5.3h.5a5.3 5.3 0 0 1 5.4 5.3V61a.8.8 0 0 1-.8.8zm-9-1.5h8.3v-10a3.9 3.9 0 0 0-3.9-4h-.5a3.9 3.9 0 0 0-3.8 4zM138.3 86h-9.7a.7.7 0 0 1-.7-.7V74.5a5.3 5.3 0 0 1 5.3-5.3h.5a5.3 5.3 0 0 1 5.3 5.3v10.8a.7.7 0 0 1-.7.8zm-9-1.4h8.2v-10a3.9 3.9 0 0 0-3.8-3.9h-.5a3.9 3.9 0 0 0-3.9 3.9zM124.3 86h-9.7a.7.7 0 0 1-.8-.7V74.5a5.3 5.3 0 0 1 5.4-5.3h.5a5.3 5.3 0 0 1 5.3 5.3v10.8a.7.7 0 0 1-.7.8zm-9-1.4h8.2v-10a3.9 3.9 0 0 0-3.8-3.9h-.5a3.9 3.9 0 0 0-3.9 3.9zM152.3 86h-9.7a.7.7 0 0 1-.7-.7V74.5a5.3 5.3 0 0 1 5.3-5.3h.5a5.3 5.3 0 0 1 5.3 5.3v10.8a.7.7 0 0 1-.7.8zm-9-1.4h8.3v-10a3.9 3.9 0 0 0-3.9-3.9h-.5a3.9 3.9 0 0 0-3.8 3.9zM166.3 86h-9.7a.7.7 0 0 1-.7-.7V74.5a5.3 5.3 0 0 1 5.3-5.3h.5a5.3 5.3 0 0 1 5.4 5.3v10.8a.7.7 0 0 1-.8.8zm-9-1.4h8.3v-10a3.9 3.9 0 0 0-3.9-3.9h-.5a3.9 3.9 0 0 0-3.8 3.9zM175.8 31.7h-69.7a.8.8 0 0 1-.7-.7.8.8 0 0 1 .7-.8h69.7a.8.8 0 0 1 .8.8.7.7 0 0 1-.8.7zM175.8 35.8h-69.7a.8.8 0 0 1-.7-.8.8.8 0 0 1 .7-.7h69.7a.8.8 0 0 1 .8.7.7.7 0 0 1-.8.8z"/><path class="cls-127" d="M135.6 106.8h33.3v22.4h-33.3z"/><path class="cls-30" d="M175.8 99.8h-69.7a.8.8 0 1 1 0-1.5h69.7a.8.8 0 0 1 0 1.5zM175.8 95.1h-69.7a.8.8 0 0 1-.7-.7.8.8 0 0 1 .7-.8h69.7a.7.7 0 0 1 .8.8.8.8 0 0 1-.8.7z"/><path class="cls-127" d="M113.8 107h17.9v32.9h-17.9z"/><path class="cls-335" transform="rotate(-180 129 111.6)" d="M126.4 107h5.2v9.3h-5.2z"/><path class="cls-336" d="M113.3 107h18.4l-5.2 9.3H108l5.2-9.3z"/><path class="cls-335" d="M124.3 107h3.7l-5.2 9.3h-3.7l5.2-9.3zM117 107h3.6l-5.1 9.3h-3.7l5.2-9.3z"/><path class="cls-336" d="M126.5 116.3a1.9 1.9 0 0 1-3.7 0z"/><path class="cls-335" d="M122.8 116.3a1.9 1.9 0 0 1-3.7 0z"/><path class="cls-336" d="M119.1 116.3a1.9 1.9 0 1 1-3.7 0z"/><path class="cls-335" d="M115.4 116.3a1.9 1.9 0 1 1-3.7 0z"/><path class="cls-336" d="M111.7 116.3a1.9 1.9 0 1 1-3.7 0z"/><path class="cls-30" d="M128 129.2a.8.8 0 0 1-.8-.8v-5.6a.8.8 0 0 1 .8-.7.7.7 0 0 1 .7.7v5.6a.8.8 0 0 1-.7.8z"/><path class="cls-337" d="M143.5 119.1a.8.8 0 0 1-.6-1.2 13.1 13.1 0 0 1 18.6 0 .7.7 0 0 1-1 1 11.7 11.7 0 0 0-16.5 0 .7.7 0 0 1-.5.2zM155.2 122h-6a.8.8 0 0 1 0-1.5h6a.8.8 0 0 1 0 1.5z"/><path class="cls-338" d="M224.3 21.8H305V140h-80.7z"/><g class="cls-339"><path class="cls-340" d="M304 128.4l1-2.3v2.3h-1z"/><path class="cls-341" d="M300.8 128.4l4.2-9v6.7l-1 2.3h-3.2z"/><path class="cls-342" d="M297.7 128.4l7.3-15.8v6.8l-4.2 9h-3.1z"/><path class="cls-343" d="M294.5 128.4l10.5-22.5v6.7l-7.3 15.8h-3.2z"/><path class="cls-108" d="M291.4 128.4l13.5-29.1h.1v6.6l-10.5 22.5h-3.1z"/><path class="cls-110" d="M288.2 128.4l13.6-29.1h3.1l-13.5 29h-3.2z"/><path class="cls-344" d="M285 128.4l13.6-29.1h3.2l-13.6 29H285z"/><path class="cls-345" d="M281.9 128.4l13.6-29.1h3.1l-13.6 29H282z"/><path class="cls-115" d="M278.7 128.4l13.6-29.1h3.2l-13.6 29h-3.2z"/><path class="cls-117" d="M275.6 128.4L289 99.3h3.2l-13.6 29h-3.1z"/><path class="cls-119" d="M272.4 128.4L286 99.3h3.1l-13.5 29h-3.2z"/><path class="cls-121" d="M269.3 128.4l13.6-29.1h3.1l-13.6 29h-3.1z"/><path class="cls-122" d="M266.1 128.4l13.6-29.1h3.2l-13.6 29H266z"/><path class="cls-124" d="M263 128.4l13.5-29.1h3.2l-13.6 29H263z"/><path class="cls-126" d="M259.8 128.4l13.6-29.1h3.1l-13.5 29h-3.2z"/><path class="cls-127" d="M256.7 128.4l13.5-29.1h3.2l-13.6 29h-3.1z"/><path class="cls-127" d="M270.2 99.3l-13.5 29H224v-29h46.1z"/></g><path class="cls-30" d="M305 129.2h-81.2a.7.7 0 0 1-.8-.7.8.8 0 0 1 .8-.8H305a.8.8 0 0 1 .8.8.8.8 0 0 1-.8.7zM305 34h-81.2a.8.8 0 0 1-.8-.8.7.7 0 0 1 .8-.7H305a.8.8 0 0 1 .8.7.8.8 0 0 1-.8.8zM305 29.4h-81.2a.7.7 0 0 1-.8-.8.8.8 0 0 1 .8-.7H305a.8.8 0 0 1 .8.7.8.8 0 0 1-.8.8z"/><path class="cls-346" d="M256 110.9a.7.7 0 0 1-.5-.3.7.7 0 0 1 0-1 13.2 13.2 0 0 1 18.6 0 .7.7 0 1 1-1 1 11.7 11.7 0 0 0-16.6 0 .7.7 0 0 1-.5.3zM264.8 122a13.1 13.1 0 0 1-9.3-4 .7.7 0 0 1 0-1 .7.7 0 0 1 1 0 11.6 11.6 0 0 0 8.3 3.5 11.6 11.6 0 0 0 8.2-3.4.7.7 0 1 1 1 1 13 13 0 0 1-9.2 3.8z"/><g class="cls-347"><g class="cls-348"><path class="cls-349" d="M224.2 79.4H305V86h-80.8zM224.2 86H305v.2h-80.8z"/><path class="cls-350" d="M224.2 86.2H305v.2h-80.8z"/><path class="cls-351" d="M224.2 86.3H305v.2h-80.8z"/><path class="cls-352" d="M224.2 86.5H305v.2h-80.8z"/><path class="cls-353" d="M224.2 86.7H305v.2h-80.8z"/><path class="cls-354" d="M224.2 86.9H305v.2h-80.8z"/><path class="cls-355" d="M224.2 87.1H305v.2h-80.8z"/><path class="cls-356" d="M224.2 87.3H305v.2h-80.8z"/><path class="cls-357" d="M224.2 87.5H305v.2h-80.8z"/><path class="cls-358" d="M224.2 87.6H305v.2h-80.8z"/><path class="cls-359" d="M224.2 87.8H305v.2h-80.8z"/><path class="cls-360" d="M224.2 88H305v.2h-80.8z"/><path class="cls-361" d="M224.2 88.2H305v.2h-80.8z"/><path class="cls-362" d="M224.2 88.4H305v.2h-80.8z"/><path class="cls-363" d="M224.2 88.6H305v.2h-80.8z"/><path class="cls-364" d="M224.2 88.7H305v.2h-80.8z"/><path class="cls-365" d="M224.2 88.9H305v.2h-80.8z"/><path class="cls-366" d="M224.2 89.1H305v.2h-80.8z"/><path class="cls-367" d="M224.2 89.3H305v.2h-80.8z"/><path class="cls-368" d="M224.2 89.5H305v.2h-80.8z"/><path class="cls-369" d="M224.2 89.7H305v.2h-80.8z"/><path class="cls-370" d="M224.2 89.8H305v.2h-80.8z"/><path class="cls-371" d="M224.2 90H305v.2h-80.8z"/><path class="cls-372" d="M224.2 90.2H305v.2h-80.8z"/><path class="cls-373" d="M224.2 90.4H305v.2h-80.8z"/><path class="cls-374" d="M224.2 90.6H305v.2h-80.8z"/><path class="cls-375" d="M224.2 90.8H305v.2h-80.8z"/><path class="cls-376" d="M224.2 91H305v.2h-80.8z"/><path class="cls-377" d="M224.2 91.1H305v.2h-80.8z"/><path class="cls-378" d="M224.2 91.3H305v.2h-80.8z"/><path class="cls-379" d="M224.2 91.5H305v.2h-80.8z"/><path class="cls-380" d="M224.2 91.7H305v.2h-80.8z"/><path class="cls-381" d="M224.2 91.9H305v.2h-80.8z"/><path class="cls-382" d="M224.2 92.1H305v.2h-80.8z"/><path class="cls-383" d="M224.2 92.3H305v.2h-80.8z"/><path class="cls-384" d="M224.2 92.4H305v.2h-80.8z"/><path class="cls-385" d="M224.2 92.6H305v.2h-80.8z"/><path class="cls-386" d="M224.2 92.8H305v.2h-80.8z"/><path class="cls-387" d="M224.2 93H305v.2h-80.8z"/><path class="cls-388" d="M224.2 93.2H305v.2h-80.8z"/><path class="cls-389" d="M224.2 93.3H305v.2h-80.8z"/><path class="cls-390" d="M224.2 93.5H305v.2h-80.8z"/><path class="cls-391" d="M224.2 93.7H305v.2h-80.8z"/><path class="cls-392" d="M224.2 93.9H305v.2h-80.8z"/><path class="cls-393" d="M224.2 94.1H305v.2h-80.8z"/><path class="cls-394" d="M224.2 94.3H305v.2h-80.8z"/><path class="cls-395" d="M224.2 94.5H305v.2h-80.8z"/><path class="cls-396" d="M224.2 94.6H305v.2h-80.8z"/><path class="cls-397" d="M224.2 94.8H305v.2h-80.8z"/><path class="cls-398" d="M224.2 95H305v.2h-80.8z"/><path class="cls-399" d="M224.2 95.2H305v.2h-80.8z"/><path class="cls-400" d="M224.2 95.4H305v.2h-80.8z"/><path class="cls-401" d="M224.2 95.6H305v.2h-80.8z"/><path class="cls-402" d="M224.2 95.8H305v.2h-80.8z"/><path class="cls-403" d="M224.2 95.9H305v.2h-80.8z"/><path class="cls-404" d="M224.2 96.1H305v.2h-80.8z"/><path class="cls-405" d="M224.2 96.3H305v.2h-80.8z"/><path class="cls-406" d="M224.2 96.5H305v.2h-80.8z"/><path class="cls-407" d="M224.2 96.7H305v.2h-80.8z"/><path class="cls-408" d="M224.2 96.8H305v.2h-80.8z"/><path class="cls-409" d="M224.2 97H305v.2h-80.8z"/><path class="cls-410" d="M224.2 97.2H305v.2h-80.8z"/><path class="cls-411" d="M224.2 97.4H305v.2h-80.8z"/><path class="cls-412" d="M224.2 97.6H305v.2h-80.8z"/><path class="cls-413" d="M224.2 97.8H305v.2h-80.8z"/><path class="cls-414" d="M224.2 98H305v.2h-80.8z"/><path class="cls-415" d="M224.2 98.1H305v.2h-80.8z"/><path class="cls-416" d="M224.2 98.3H305v.2h-80.8z"/><path class="cls-417" d="M224.2 98.5H305v.2h-80.8z"/><path class="cls-418" d="M224.2 98.7H305v.2h-80.8z"/><path class="cls-419" d="M224.2 98.9H305v.2h-80.8z"/><path class="cls-420" d="M224.2 99.1H305v.2h-80.8z"/><path class="cls-421" d="M224.2 99.3H305v.2h-80.8z"/><path class="cls-422" d="M224.2 99.4H305v.2h-80.8z"/><path class="cls-423" d="M224.2 99.6H305v.2h-80.8z"/><path class="cls-424" d="M224.2 99.8H305v.2h-80.8z"/><path class="cls-425" d="M224.2 100H305v.2h-80.8z"/><path class="cls-426" d="M224.2 100.2H305v.2h-80.8z"/><path class="cls-427" d="M224.2 100.4H305v.2h-80.8z"/><path class="cls-428" d="M224.2 100.5H305v.2h-80.8z"/><path class="cls-429" d="M224.2 100.7H305v.2h-80.8z"/><path class="cls-430" d="M224.2 100.9H305v.2h-80.8z"/><path class="cls-431" d="M224.2 101.1H305v.2h-80.8z"/><path class="cls-432" d="M224.2 101.3H305v.2h-80.8z"/><path class="cls-433" d="M224.2 101.5H305v.2h-80.8z"/><path class="cls-434" d="M224.2 101.7H305v.2h-80.8z"/><path class="cls-435" d="M224.2 101.8H305v.2h-80.8z"/><path class="cls-436" d="M224.2 102H305v.2h-80.8z"/><path class="cls-437" d="M224.2 102.2H305v.2h-80.8z"/><path class="cls-438" d="M224.2 102.4H305v.2h-80.8z"/><path class="cls-439" d="M224.2 102.6H305v.2h-80.8z"/><path class="cls-440" d="M224.2 102.8H305v.2h-80.8z"/><path class="cls-441" d="M224.2 102.9H305v.2h-80.8z"/><path class="cls-442" d="M224.2 103.1H305v.2h-80.8z"/><path class="cls-443" d="M224.2 103.3H305v.2h-80.8z"/><path class="cls-444" d="M224.2 103.5H305v.2h-80.8z"/><path class="cls-445" d="M224.2 103.7H305v.2h-80.8z"/><path class="cls-446" d="M224.2 103.9H305v.2h-80.8z"/><path class="cls-447" d="M224.2 104H305v.2h-80.8z"/><path class="cls-448" d="M224.2 104.2H305v.2h-80.8z"/><path class="cls-449" d="M224.2 104.4H305v.2h-80.8z"/><path class="cls-450" d="M224.2 104.6H305v.2h-80.8z"/><path class="cls-451" d="M224.2 104.8H305v.2h-80.8z"/><path class="cls-452" d="M224.2 105H305v.2h-80.8z"/><path class="cls-453" d="M224.2 105.2H305v.2h-80.8z"/><path class="cls-454" d="M224.2 105.3H305v.2h-80.8z"/><path class="cls-455" d="M224.2 105.5H305v.2h-80.8z"/><path class="cls-456" d="M224.2 105.7H305v.2h-80.8z"/><path class="cls-457" d="M224.2 105.9H305v.2h-80.8z"/><path class="cls-458" d="M224.2 106.1H305v.2h-80.8z"/><path class="cls-459" d="M224.2 106.3H305v.2h-80.8z"/><path class="cls-460" d="M224.2 106.4H305v.2h-80.8z"/><path class="cls-461" d="M224.2 106.6H305v.2h-80.8z"/><path class="cls-462" d="M224.2 106.8H305v.2h-80.8z"/><path class="cls-463" d="M224.2 107H305v.2h-80.8z"/><path class="cls-464" d="M224.2 107.2H305v.2h-80.8z"/><path class="cls-465" d="M224.2 107.4H305v.2h-80.8z"/><path class="cls-466" d="M224.2 107.5H305v.2h-80.8z"/><path class="cls-467" d="M224.2 107.7H305v.2h-80.8z"/><path class="cls-468" d="M224.2 107.9H305v.2h-80.8z"/><path class="cls-469" d="M224.2 108.1H305v.2h-80.8z"/><path class="cls-470" d="M224.2 108.3H305v.2h-80.8z"/><path class="cls-471" d="M224.2 108.5H305v.2h-80.8z"/><path class="cls-472" d="M224.2 108.7H305v.2h-80.8z"/><path class="cls-27" d="M224.2 108.8H305v.2h-80.8z"/><path class="cls-473" d="M224.2 109H305v.2h-80.8z"/><path class="cls-106" d="M224.2 109.2H305v.2h-80.8z"/><path class="cls-474" d="M224.2 109.4H305v.2h-80.8z"/><path class="cls-475" d="M224.2 109.6H305v.2h-80.8z"/><path class="cls-305" d="M224.2 109.8H305v.2h-80.8z"/><path class="cls-304" d="M224.2 109.9H305v.2h-80.8z"/><path class="cls-476" d="M224.2 110.1H305v.2h-80.8z"/><path class="cls-112" d="M224.2 110.3H305v.2h-80.8z"/><path class="cls-477" d="M224.2 110.5H305v.2h-80.8z"/><path class="cls-478" d="M224.2 110.7H305v.2h-80.8z"/><path class="cls-115" d="M224.2 110.9H305v.2h-80.8z"/><path class="cls-479" d="M224.2 111H305v.2h-80.8z"/><path class="cls-117" d="M224.2 111.2H305v.2h-80.8z"/><path class="cls-118" d="M224.2 111.4H305v.2h-80.8z"/><path class="cls-480" d="M224.2 111.6H305v.2h-80.8z"/><path class="cls-120" d="M224.2 111.8H305v.2h-80.8z"/><path class="cls-122" d="M224.2 112H305v.2h-80.8zM224.2 112.2H305v.2h-80.8z"/><path class="cls-124" d="M224.2 112.3H305v.2h-80.8zM224.2 112.5H305v.2h-80.8z"/><path class="cls-125" d="M224.2 112.7H305v.2h-80.8z"/><path class="cls-126" d="M224.2 112.9H305v.2h-80.8z"/><path class="cls-126" d="M224.2 113.1H305v.2h-80.8z"/><path class="cls-127" d="M224.2 113.3H305v.2h-80.8z"/><path class="cls-127" d="M224.2 113.4H305v.2h-80.8z"/><path class="cls-127" d="M224.2 113.6H305v.2h-80.8zM224.2 113.8H305v.4h-80.8z"/></g></g><path class="cls-346" d="M305 79.4L285.4 99h-81l19.5-19.6H305z"/><path class="cls-346" d="M305 79.4L285.2 99H305V79.4z"/><g class="cls-130"><g class="cls-481"><path class="cls-52" d="M285.2 98.6l.4.4h-.4v-.4z"/><path class="cls-53" d="M285.2 98.3l.1-.1.9.8h-.6l-.4-.4v-.3z"/><path class="cls-482" d="M285.3 98.2l.3-.3 1.1 1h-.5l-.9-.7z"/><path class="cls-483" d="M285.6 97.9l.3-.3 1.4 1.4h-.6l-1-1.1z"/><path class="cls-55" d="M286 97.6l.2-.3L288 99h-.6l-1.4-1.4z"/><path class="cls-56" d="M286.2 97.3l.3-.3 2 2h-.6l-1.7-1.7z"/><path class="cls-484" d="M286.5 97l.3-.3L289 99h-.6l-2-2z"/><path class="cls-485" d="M286.8 96.7l.3-.3 2.6 2.6h-.6l-2.3-2.3z"/><path class="cls-58" d="M287 96.4l.4-.3 2.9 2.9h-.6l-2.6-2.6z"/><path class="cls-59" d="M287.4 96.1l.3-.3 3.2 3.2h-.6l-3-2.9z"/><path class="cls-334" d="M287.7 95.8l.3-.3 3.4 3.5h-.5l-3.2-3.2z"/><path class="cls-333" d="M288 95.5l.3-.3L292 99h-.6l-3.4-3.5z"/><path class="cls-332" d="M288.3 95.2l.3-.3 4 4h-.6l-3.7-3.7z"/><path class="cls-62" d="M288.6 95l.3-.4 4.3 4.4h-.6l-4-4z"/><path class="cls-63" d="M288.9 94.6l.2-.3 4.7 4.7h-.6l-4.3-4.4z"/><path class="cls-331" d="M289.1 94.3l.3-.3 5 5h-.6l-4.7-4.7z"/><path class="cls-330" d="M289.4 94l.3-.2L295 99h-.6l-5-5z"/><path class="cls-329" d="M289.7 93.8l.3-.3 5.6 5.5h-.6l-5.3-5.2z"/><path class="cls-328" d="M290 93.5l.3-.3 5.8 5.8h-.6l-5.5-5.5z"/><path class="cls-327" d="M290.3 93.2l.3-.3 6.1 6h-.6l-5.8-5.7z"/><path class="cls-326" d="M290.6 92.9l.3-.3 6.4 6.4h-.6l-6-6.1z"/><path class="cls-325" d="M290.9 92.6l.3-.3 6.7 6.7h-.6l-6.4-6.4z"/><path class="cls-324" d="M291.2 92.3l.3-.3 7 7h-.6l-6.7-6.7z"/><path class="cls-323" d="M291.5 92l.3-.3L299 99h-.6l-7-7z"/><path class="cls-322" d="M291.8 91.7l.3-.3 7.6 7.6h-.6l-7.3-7.3z"/><path class="cls-321" d="M292 91.4l.4-.3 7.9 7.9h-.6l-7.6-7.6z"/><path class="cls-320" d="M292.4 91.1l.3-.3 8.1 8.2h-.6l-7.8-7.9z"/><path class="cls-74" d="M292.7 90.8l.3-.3 8.4 8.5h-.6l-8.1-8.2z"/><path class="cls-319" d="M293 90.5l.3-.3L302 99h-.6l-8.4-8.5z"/><path class="cls-318" d="M293.3 90.2l.2-.3 9.1 9h-.6l-8.8-8.7z"/><path class="cls-317" d="M293.5 90l.3-.3 9.4 9.3h-.6l-9-9z"/><path class="cls-316" d="M293.8 89.7l.3-.4 9.7 9.7h-.6l-9.4-9.3z"/><path class="cls-79" d="M294.1 89.3l.3-.2 10 9.9h-.6l-9.7-9.7z"/><path class="cls-315" d="M294.4 89l.3-.2L305 99h-.5l-10-10z"/><path class="cls-314" d="M294.7 88.8l.3-.3 10 10v.5l-10.3-10.2z"/><path class="cls-313" d="M295 88.5l.3-.3 9.7 9.7v.6l-10-10z"/><path class="cls-312" d="M295.3 88.2l.3-.3 9.4 9.4v.6l-9.7-9.7z"/><path class="cls-83" d="M295.6 87.9l.3-.3 9.1 9.1v.6l-9.4-9.4z"/><path class="cls-84" d="M295.9 87.6l.3-.3 8.8 8.8v.6l-9.1-9.1z"/><path class="cls-311" d="M296.2 87.3l.3-.3 8.5 8.5v.6l-8.8-8.8z"/><path class="cls-310" d="M296.5 87l.3-.3L305 95v.6l-8.5-8.5z"/><path class="cls-87" d="M296.8 86.7l.3-.3 7.9 8v.5l-8.2-8.2z"/><path class="cls-88" d="M297 86.4l.4-.3 7.6 7.7v.5l-8-7.9z"/><path class="cls-309" d="M297.4 86.1l.3-.3 7.3 7.4v.6l-7.6-7.7z"/><path class="cls-90" d="M297.6 85.8l.3-.3 7.1 7v.7l-7.4-7.4z"/><path class="cls-91" d="M298 85.5l.2-.3L305 92v.6l-7-7z"/><path class="cls-92" d="M298.2 85.2l.3-.3 6.5 6.5v.6l-6.8-6.8z"/><path class="cls-308" d="M298.5 85l.3-.3 6.2 6.1v.6l-6.5-6.5z"/><path class="cls-307" d="M298.8 84.7l.3-.3 5.9 5.8v.6l-6.2-6.1z"/><path class="cls-306" d="M299.1 84.4l.3-.3 5.6 5.6v.5l-5.9-5.8z"/><path class="cls-97" d="M299.4 84l.3-.2L305 89v.6l-5.6-5.6z"/><path class="cls-98" d="M299.7 83.8l.3-.3 5 5v.6l-5.3-5.3z"/><path class="cls-99" d="M300 83.5l.3-.3 4.7 4.7v.6l-5-5z"/><path class="cls-100" d="M300.3 83.2l.3-.3 4.4 4.4v.6l-4.7-4.7z"/><path class="cls-101" d="M300.6 82.9l.3-.3 4.1 4.1v.6l-4.4-4.4z"/><path class="cls-103" d="M300.9 82.6l.3-.3 3.8 3.8v.6l-4.1-4.1z"/><path class="cls-104" d="M301.2 82.3l.3-.3 3.5 3.5v.6l-3.8-3.8z"/><path class="cls-105" d="M301.5 82l.3-.3L305 85v.5l-3.5-3.5z"/><path class="cls-107" d="M301.8 81.7l.3-.3 2.9 3v.6l-3.2-3.3z"/><path class="cls-108" d="M302 81.4l.4-.3 2.6 2.7v.6l-3-3z"/><path class="cls-305" d="M302.4 81.1l.2-.3 2.4 2.4v.6l-2.6-2.7z"/><path class="cls-304" d="M302.6 80.8l.3-.3 2.1 2.1v.6l-2.4-2.4z"/><path class="cls-112" d="M303 80.5l.2-.3L305 82v.6l-2-2z"/><path class="cls-113" d="M303.2 80.3l.3-.3 1.5 1.4v.6l-1.8-1.8z"/><path class="cls-115" d="M303.5 80l.3-.3 1.2 1.1v.6l-1.5-1.4z"/><path class="cls-117" d="M303.8 79.7l.3-.3.9.9v.5l-1.2-1.1z"/><path class="cls-119" d="M304.7 79.4l.3.3v.6l-.9-.9h.6z"/><path class="cls-121" d="M305 79.7l-.3-.3h.3v.3z"/></g></g><g class="cls-486"><path class="cls-128" d="M215.6 96.3a.7.7 0 0 1-.6-.3.7.7 0 0 1 0-1l12.7-12.8a.8.8 0 0 1 1.1 1.1L216.1 96a.7.7 0 0 1-.5.3zM224.7 96.3a.8.8 0 0 1-.5-1.3l12.7-12.8a.7.7 0 0 1 1 0 .8.8 0 0 1 0 1.1L225.3 96a.7.7 0 0 1-.5.3zM233.9 96.3a.8.8 0 0 1-.6-1.3l12.8-12.8a.7.7 0 0 1 1 0 .8.8 0 0 1 0 1.1L234.5 96a.7.7 0 0 1-.5.3zM243 96.3a.7.7 0 0 1-.5-.3.7.7 0 0 1 0-1l12.7-12.8a.7.7 0 0 1 1 0 .8.8 0 0 1 0 1.1L243.7 96a.7.7 0 0 1-.6.3zM252.2 96.3a.7.7 0 0 1-.5-.3.7.7 0 0 1 0-1l12.7-12.8a.8.8 0 1 1 1 1.1L252.8 96a.7.7 0 0 1-.5.3zM261.4 96.3a.7.7 0 0 1-.6-.3.7.7 0 0 1 0-1l12.8-12.8a.8.8 0 1 1 1 1.1L262 96a.7.7 0 0 1-.5.3zM270.5 96.3a.8.8 0 0 1-.5-1.3l12.8-12.8a.7.7 0 0 1 1 0 .8.8 0 0 1 0 1.1L271 96a.7.7 0 0 1-.5.3zM279.7 96.3a.8.8 0 0 1-.5-1.3l12.7-12.8a.7.7 0 0 1 1 0 .8.8 0 0 1 0 1.1L280.2 96a.7.7 0 0 1-.5.3z"/></g><path class="cls-346" d="M274.3 114.6h-19a.7.7 0 0 1-.7-.8.8.8 0 0 1 .8-.7h18.9a.8.8 0 0 1 .7.7.7.7 0 0 1-.7.8z"/><path class="cls-487" d="M368.2 85.2h14.2v54.9h-14.2z"/><path class="cls-340" d="M382.4 140h23.2V85.3l-11.9-18.4-11.3 18.4V140z"/><path class="cls-488" d="M379.6 66.8h14.1l-11.3 18.4h-14.2l11.4-18.4zM392.6 131h3.4v9.1h-3.4z"/><path class="cls-338" d="M370.3 88.4h3v10.2h-3zM376.4 88.4h3v10.2h-3z"/><path class="cls-127" d="M386.5 88.4h3v10.2h-3zM392.8 88.4h3v10.2h-3zM398.6 88.4h3v10.2h-3zM386.5 101.8h3V112h-3zM392.8 101.7h3v10.2h-3zM398.6 101.7h3v10.2h-3zM386.5 114.5h3v10.2h-3zM392.8 114.5h3v10.2h-3zM398.6 114.5h3v10.2h-3z"/><path class="cls-338" d="M370.3 101.6h3v10.2h-3zM376.4 101.6h3v10.2h-3zM370.3 114.5h3v10.2h-3zM376.4 114.5h3v10.2h-3z"/><path class="cls-127" d="M392.3 80.5c0 2 .9 3.6 2 3.6s2-1.6 2-3.6-.9-3.7-2-3.7-2 1.7-2 3.7z"/><path class="cls-340" transform="rotate(-180 21 113.3)" d="M6.4 87h29.2v52.7H6.4z"/><path class="cls-487" d="M-9.3 139.7H6.4V87l-7.9-11.7L-9.3 87v52.7z"/><path class="cls-338" d="M-1.5 75.3h29.2L35.6 87H6.4l-7.9-11.7z"/><path class="cls-340" d="M15.7 84.5h-3.5v-6l1.8-3.2 1.7 3.1v6.1z"/><path class="cls-487" d="M12.2 84.5v-6H7.9l4.3 6z"/><path class="cls-488" d="M14 75.3l-1.8 3.1H7.9l2.2-3.1h3.8z"/><path class="cls-340" d="M26.6 84.5H23v-6l1.7-3.2 1.8 3.1v6.1z"/><path class="cls-487" d="M23 84.5v-6h-4.2l4.3 6z"/><path class="cls-488" d="M24.8 75.3l-1.7 3.1h-4.3l2.1-3.1h4z"/><path class="cls-127" d="M11.2 92.9h2v7.2h-2zM17.4 92.9h2v7.2h-2zM23.7 92.9h2v7.2h-2zM29.9 92.9h2v7.2h-2z"/><path class="cls-338" d="M2.1 92.9h1.4v7.2H2.1zM2.1 102.9h1.4v7.2H2.1zM2.1 113.6h1.4v7.2H2.1zM2.1 124h1.4v7.2H2.1z"/><path class="cls-127" d="M11.2 103.2h2v7.2h-2zM17.4 103.2h2v7.2h-2zM23.7 103.2h2v7.2h-2zM29.9 103.2h2v7.2h-2zM11.2 113.5h2v7.2h-2zM17.4 113.5h2v7.2h-2zM23.7 113.5h2v7.2h-2zM29.9 113.5h2v7.2h-2zM11.2 123.9h2v7.2h-2zM17.4 123.9h2v7.2h-2zM23.7 123.9h2v7.2h-2zM29.9 123.9h2v7.2h-2z"/><path class="cls-488" d="M21 135h1.7v4.7h-1.8"/></g></g></svg>