<?xml version="1.0" encoding="UTF-8" standalone="no"?>
<svg
   xmlns:dc="http://purl.org/dc/elements/1.1/"
   xmlns:cc="http://creativecommons.org/ns#"
   xmlns:rdf="http://www.w3.org/1999/02/22-rdf-syntax-ns#"
   xmlns:svg="http://www.w3.org/2000/svg"
   xmlns="http://www.w3.org/2000/svg"
   xmlns:xlink="http://www.w3.org/1999/xlink"
   xmlns:sodipodi="http://sodipodi.sourceforge.net/DTD/sodipodi-0.dtd"
   xmlns:inkscape="http://www.inkscape.org/namespaces/inkscape"
   width="40"
   height="40"
   viewBox="0 0 40 40"
   version="1.1"
   id="svg366"
   sodipodi:docname="icon.svg"
   inkscape:version="1.0.1 (3bc2e813f5, 2020-09-07)">
  <metadata
     id="metadata370">
    <rdf:RDF>
      <cc:Work
         rdf:about="">
        <dc:format>image/svg+xml</dc:format>
        <dc:type
           rdf:resource="http://purl.org/dc/dcmitype/StillImage" />
        <dc:title>Speed &amp; Performance</dc:title>
      </cc:Work>
    </rdf:RDF>
  </metadata>
  <sodipodi:namedview
     pagecolor="#ffffff"
     bordercolor="#666666"
     borderopacity="1"
     objecttolerance="10"
     gridtolerance="10"
     guidetolerance="10"
     inkscape:pageopacity="0"
     inkscape:pageshadow="2"
     inkscape:window-width="1366"
     inkscape:window-height="704"
     id="namedview368"
     showgrid="false"
     inkscape:zoom="7.4074074"
     inkscape:cx="3.2369513"
     inkscape:cy="17.367128"
     inkscape:window-x="0"
     inkscape:window-y="27"
     inkscape:window-maximized="1"
     inkscape:current-layer="svg366" />
  <!-- Generator: Sketch 3.7.2 (28276) - http://www.bohemiancoding.com/sketch -->
  <title
     id="title2">Speed &amp; Performance</title>
  <desc
     id="desc4">Created with Sketch.</desc>
  <defs
     id="defs86">
    <rect
       id="path-1"
       x="11"
       y="17"
       width="940"
       height="560"
       rx="4" />
    <filter
       x="-0.5"
       y="-0.5"
       width="2"
       height="2"
       filterUnits="objectBoundingBox"
       id="filter-2">
      <feOffset
         dx="0"
         dy="5"
         in="SourceAlpha"
         result="shadowOffsetOuter1"
         id="feOffset7" />
      <feGaussianBlur
         stdDeviation="2.5"
         in="shadowOffsetOuter1"
         result="shadowBlurOuter1"
         id="feGaussianBlur9" />
      <feColorMatrix
         values="0 0 0 0 0   0 0 0 0 0   0 0 0 0 0  0 0 0 0.25 0"
         type="matrix"
         in="shadowBlurOuter1"
         id="feColorMatrix11" />
    </filter>
    <circle
       id="path-3"
       cx="6"
       cy="6"
       r="6" />
    <filter
       x="-0.5"
       y="-0.5"
       width="2"
       height="2"
       filterUnits="objectBoundingBox"
       id="filter-4">
      <feOffset
         dx="0"
         dy="1"
         in="SourceAlpha"
         result="shadowOffsetOuter1"
         id="feOffset15" />
      <feGaussianBlur
         stdDeviation="0.5"
         in="shadowOffsetOuter1"
         result="shadowBlurOuter1"
         id="feGaussianBlur17" />
      <feColorMatrix
         values="0 0 0 0 0   0 0 0 0 0   0 0 0 0 0  0 0 0 0.15 0"
         type="matrix"
         in="shadowBlurOuter1"
         id="feColorMatrix19" />
    </filter>
    <circle
       id="path-5"
       cx="25"
       cy="6"
       r="6" />
    <filter
       x="-0.5"
       y="-0.5"
       width="2"
       height="2"
       filterUnits="objectBoundingBox"
       id="filter-6">
      <feOffset
         dx="0"
         dy="1"
         in="SourceAlpha"
         result="shadowOffsetOuter1"
         id="feOffset23" />
      <feGaussianBlur
         stdDeviation="0.5"
         in="shadowOffsetOuter1"
         result="shadowBlurOuter1"
         id="feGaussianBlur25" />
      <feColorMatrix
         values="0 0 0 0 0   0 0 0 0 0   0 0 0 0 0  0 0 0 0.15 0"
         type="matrix"
         in="shadowBlurOuter1"
         id="feColorMatrix27" />
    </filter>
    <circle
       id="path-7"
       cx="45"
       cy="6"
       r="6" />
    <filter
       x="-0.5"
       y="-0.5"
       width="2"
       height="2"
       filterUnits="objectBoundingBox"
       id="filter-8">
      <feOffset
         dx="0"
         dy="1"
         in="SourceAlpha"
         result="shadowOffsetOuter1"
         id="feOffset31" />
      <feGaussianBlur
         stdDeviation="0.5"
         in="shadowOffsetOuter1"
         result="shadowBlurOuter1"
         id="feGaussianBlur33" />
      <feColorMatrix
         values="0 0 0 0 0   0 0 0 0 0   0 0 0 0 0  0 0 0 0.15 0"
         type="matrix"
         in="shadowBlurOuter1"
         id="feColorMatrix35" />
    </filter>
    <rect
       id="path-9"
       x="0"
       y="0"
       width="19.146723"
       height="15" />
    <mask
       id="mask-10"
       maskContentUnits="userSpaceOnUse"
       maskUnits="objectBoundingBox"
       x="0"
       y="0"
       width="19.1467222"
       height="15"
       fill="#ffffff">
      <use
         xlink:href="#path-9"
         id="use39"
         x="0"
         y="0"
         width="100%"
         height="100%" />
    </mask>
    <rect
       id="path-11"
       x="0"
       y="0"
       width="19.146723"
       height="15" />
    <mask
       id="mask-12"
       maskContentUnits="userSpaceOnUse"
       maskUnits="objectBoundingBox"
       x="0"
       y="0"
       width="19.1467222"
       height="15"
       fill="#ffffff">
      <use
         xlink:href="#path-11"
         id="use43"
         x="0"
         y="0"
         width="100%"
         height="100%" />
    </mask>
    <rect
       id="path-13"
       x="0"
       y="0"
       width="19.146723"
       height="15" />
    <mask
       id="mask-14"
       maskContentUnits="userSpaceOnUse"
       maskUnits="objectBoundingBox"
       x="0"
       y="0"
       width="19.1467222"
       height="15"
       fill="#ffffff">
      <use
         xlink:href="#path-13"
         id="use47"
         x="0"
         y="0"
         width="100%"
         height="100%" />
    </mask>
    <rect
       id="path-15"
       x="0"
       y="0"
       width="19.146723"
       height="15" />
    <mask
       id="mask-16"
       maskContentUnits="userSpaceOnUse"
       maskUnits="objectBoundingBox"
       x="0"
       y="0"
       width="19.1467222"
       height="15"
       fill="#ffffff">
      <use
         xlink:href="#path-15"
         id="use51"
         x="0"
         y="0"
         width="100%"
         height="100%" />
    </mask>
    <rect
       id="path-17"
       x="0"
       y="0"
       width="19.146723"
       height="15" />
    <mask
       id="mask-18"
       maskContentUnits="userSpaceOnUse"
       maskUnits="objectBoundingBox"
       x="0"
       y="0"
       width="19.1467222"
       height="15"
       fill="#ffffff">
      <use
         xlink:href="#path-17"
         id="use55"
         x="0"
         y="0"
         width="100%"
         height="100%" />
    </mask>
    <rect
       id="path-19"
       x="0"
       y="0"
       width="19.146723"
       height="15" />
    <mask
       id="mask-20"
       maskContentUnits="userSpaceOnUse"
       maskUnits="objectBoundingBox"
       x="0"
       y="0"
       width="19.1467222"
       height="15"
       fill="#ffffff">
      <use
         xlink:href="#path-19"
         id="use59"
         x="0"
         y="0"
         width="100%"
         height="100%" />
    </mask>
    <rect
       id="path-21"
       x="0"
       y="0"
       width="19.146723"
       height="15" />
    <mask
       id="mask-22"
       maskContentUnits="userSpaceOnUse"
       maskUnits="objectBoundingBox"
       x="0"
       y="0"
       width="19.1467222"
       height="15"
       fill="#ffffff">
      <use
         xlink:href="#path-21"
         id="use63"
         x="0"
         y="0"
         width="100%"
         height="100%" />
    </mask>
    <path
       d="M 0,0 H 304 V 150.74075 H 248.55854 0 Z"
       id="path-23" />
    <path
       d="m 66.626238,229.31233 c 20.245627,23.0283 49.982702,37.57068 83.130122,37.57068 61.0017,0 110.45334,-49.25154 110.45334,-110.00639 0,-60.754851 -49.45164,-110.006391 -110.45334,-110.006391 -61.001688,0 -110.45333,49.25154 -110.45333,110.006391 0,27.74155 10.310515,53.0847 27.323208,72.43571 z"
       id="path-25" />
    <mask
       id="mask-26"
       maskContentUnits="userSpaceOnUse"
       maskUnits="objectBoundingBox"
       x="0"
       y="0"
       width="220.906667"
       height="220.012785"
       fill="#ffffff">
      <use
         xlink:href="#path-25"
         id="use68"
         x="0"
         y="0"
         width="100%"
         height="100%" />
    </mask>
    <linearGradient
       x1="0"
       y1="0.5"
       x2="0"
       y2="0"
       id="linearGradient-27">
      <stop
         stop-color="#FFFFFF"
         offset="0%"
         id="stop71" />
      <stop
         stop-color="#FFFFFF"
         stop-opacity="0"
         offset="100%"
         id="stop73" />
    </linearGradient>
    <rect
       id="path-28"
       x="0"
       y="0"
       width="276"
       height="136.76479" />
    <linearGradient
       x1="223.72064"
       y1="175.80106"
       x2="123.7265"
       y2="175.80106"
       id="linearGradient-30"
       gradientTransform="scale(1.0023662,0.99763944)"
       gradientUnits="userSpaceOnUse">
      <stop
         stop-color="#ED2222"
         offset="0%"
         id="stop77" />
      <stop
         stop-color="#4BA4E7"
         stop-opacity="0.297101449"
         offset="100%"
         id="stop79" />
    </linearGradient>
    <path
       d="m 65.023866,214.58318 c 16.652419,18.92849 41.111734,30.88185 68.376134,30.88185 50.17507,0 90.85,-40.48312 90.85,-90.42159 0,-49.93847 -40.67493,-90.421591 -90.85,-90.421591 -50.17507,0 -90.85,40.483121 -90.85,90.421591 0,22.80263 8.480597,43.63386 22.473866,59.53974 z"
       id="path-31" />
    <mask
       id="mask-32"
       maskContentUnits="userSpaceOnUse"
       maskUnits="objectBoundingBox"
       x="0"
       y="0"
       width="181.7"
       height="180.843184"
       fill="#ffffff">
      <use
         xlink:href="#path-31"
         id="use83"
         x="0"
         y="0"
         width="100%"
         height="100%" />
    </mask>
  </defs>
  <g
     id="angular-logo"
     transform="matrix(1,0,0,0.95909754,1.7632449,-3.6676671)"
     style="fill:none;fill-rule:evenodd;stroke:none;stroke-width:1">
    <g
       id="Group"
       transform="translate(1,4)"
       fill="#ffffff">
      <g
         id="Shape">
        <polygon
           points="13.203136,25.743793 10.974035,31.835517 6.8397198,31.835517 6.8206677,31.835517 17.909016,4.6105172 17.909016,4.6313793 17.909016,0 0.1714693,6.9262069 2.8768738,32.607414 17.909016,41.724138 17.909016,25.743793 "
           id="polygon333" />
        <polygon
           points="17.909016,13.456034 14.670151,21.988621 17.909016,21.988621 "
           id="polygon335" />
      </g>
      <g
         opacity="0.9"
         transform="translate(17.909016)"
         id="g342">
        <polygon
           points="4.7058797,25.743793 6.9349806,31.835517 11.069296,31.835517 11.088348,31.835517 1.7763568e-15,4.6105172 1.7763568e-15,4.6313793 1.7763568e-15,0 17.737547,6.9262069 15.032142,32.607414 1.7763568e-15,41.724138 1.7763568e-15,25.743793 "
           id="polygon338" />
        <polygon
           points="0,13.456034 3.2388646,21.988621 0,21.988621 "
           id="polygon340" />
      </g>
    </g>
  </g>
</svg>
