<?xml version="1.0" encoding="UTF-8" standalone="no"?>
<svg
   xmlns:dc="http://purl.org/dc/elements/1.1/"
   xmlns:cc="http://creativecommons.org/ns#"
   xmlns:rdf="http://www.w3.org/1999/02/22-rdf-syntax-ns#"
   xmlns:svg="http://www.w3.org/2000/svg"
   xmlns="http://www.w3.org/2000/svg"
   xmlns:sodipodi="http://sodipodi.sourceforge.net/DTD/sodipodi-0.dtd"
   xmlns:inkscape="http://www.inkscape.org/namespaces/inkscape"
   width="1295px"
   height="759px"
   viewBox="0 0 1295 759"
   version="1.1"
   id="svg236"
   sodipodi:docname="map.svg"
   inkscape:version="1.0.1 (3bc2e813f5, 2020-09-07)">
  <metadata
     id="metadata240">
    <rdf:RDF>
      <cc:Work
         rdf:about="">
        <dc:format>image/svg+xml</dc:format>
        <dc:type
           rdf:resource="http://purl.org/dc/dcmitype/StillImage" />
      </cc:Work>
    </rdf:RDF>
  </metadata>
  <sodipodi:namedview
     pagecolor="#ffffff"
     bordercolor="#666666"
     borderopacity="1"
     objecttolerance="10"
     gridtolerance="10"
     guidetolerance="10"
     inkscape:pageopacity="0"
     inkscape:pageshadow="2"
     inkscape:window-width="1366"
     inkscape:window-height="704"
     id="namedview238"
     showgrid="false"
     inkscape:zoom="0.51239622"
     inkscape:cx="724.52883"
     inkscape:cy="507.47066"
     inkscape:window-x="0"
     inkscape:window-y="27"
     inkscape:window-maximized="1"
     inkscape:current-layer="svg236"
     inkscape:document-rotation="0" />
  <!-- Generator: Sketch 3.7.2 (28276) - http://www.bohemiancoding.com/sketch -->
  <title
     id="title2">Responsive Framework</title>
  <desc
     id="desc4">Created with Sketch.</desc>
  <defs
     id="defs66">
    <rect
       id="path-1"
       x="0"
       y="0"
       width="832.761381"
       height="555.226994"
       rx="10" />
    <filter
       x="-50%"
       y="-50%"
       width="200%"
       height="200%"
       filterUnits="objectBoundingBox"
       id="filter-2">
      <feOffset
         dx="0"
         dy="0"
         in="SourceAlpha"
         result="shadowOffsetOuter1"
         id="feOffset7" />
      <feGaussianBlur
         stdDeviation="2.5"
         in="shadowOffsetOuter1"
         result="shadowBlurOuter1"
         id="feGaussianBlur9" />
      <feColorMatrix
         values="0 0 0 0 0   0 0 0 0 0   0 0 0 0 0  0 0 0 0.12 0"
         type="matrix"
         in="shadowBlurOuter1"
         result="shadowMatrixOuter1"
         id="feColorMatrix11" />
      <feOffset
         dx="0"
         dy="5"
         in="SourceAlpha"
         result="shadowOffsetOuter2"
         id="feOffset13" />
      <feGaussianBlur
         stdDeviation="2.5"
         in="shadowOffsetOuter2"
         result="shadowBlurOuter2"
         id="feGaussianBlur15" />
      <feColorMatrix
         values="0 0 0 0 0   0 0 0 0 0   0 0 0 0 0  0 0 0 0.24 0"
         type="matrix"
         in="shadowBlurOuter2"
         result="shadowMatrixOuter2"
         id="feColorMatrix17" />
      <feMerge
         id="feMerge23">
        <feMergeNode
           in="shadowMatrixOuter1"
           id="feMergeNode19" />
        <feMergeNode
           in="shadowMatrixOuter2"
           id="feMergeNode21" />
      </feMerge>
    </filter>
    <path
       d="M423.070823,375.356054 L672.348703,375.356054 L672.348703,19.349783 C672.348703,8.65536397 663.539446,0 652.652382,0 L93.95269,0 C83.0763366,0 74.2563691,8.65536397 74.2563691,19.349783 L74.2563691,375.356054 L423.070823,375.356054 L423.070823,375.356054 Z M111.988908,41.0412933 L634.610809,41.0412933 L634.610809,338.21233 L111.988908,338.21233 L111.988908,41.0412933 Z M376.253236,375.356054 L8.97682789,375.356054 C2.50778066,375.356054 -1.8299083,381.005936 0.761994731,386.045163 L1.28144637,387.054071 C9.24994163,402.522215 27.2165422,412.515709 47.0628079,412.515709 L705.443664,412.515709 C725.289929,412.515709 743.25653,402.522215 751.21967,387.054071 L751.739122,386.045163 C754.33638,381.005936 749.998691,375.356054 743.529644,375.356054 L376.253236,375.356054 Z"
       id="path-3" />
    <filter
       x="-50%"
       y="-50%"
       width="200%"
       height="200%"
       filterUnits="objectBoundingBox"
       id="filter-4">
      <feOffset
         dx="0"
         dy="5"
         in="SourceAlpha"
         result="shadowOffsetOuter1"
         id="feOffset27" />
      <feGaussianBlur
         stdDeviation="2.5"
         in="shadowOffsetOuter1"
         result="shadowBlurOuter1"
         id="feGaussianBlur29" />
      <feColorMatrix
         values="0 0 0 0 0   0 0 0 0 0   0 0 0 0 0  0 0 0 0.24 0"
         type="matrix"
         in="shadowBlurOuter1"
         result="shadowMatrixOuter1"
         id="feColorMatrix31" />
      <feOffset
         dx="0"
         dy="0"
         in="SourceAlpha"
         result="shadowOffsetOuter2"
         id="feOffset33" />
      <feGaussianBlur
         stdDeviation="2.5"
         in="shadowOffsetOuter2"
         result="shadowBlurOuter2"
         id="feGaussianBlur35" />
      <feColorMatrix
         values="0 0 0 0 0   0 0 0 0 0   0 0 0 0 0  0 0 0 0.12 0"
         type="matrix"
         in="shadowBlurOuter2"
         result="shadowMatrixOuter2"
         id="feColorMatrix37" />
      <feMerge
         id="feMerge43">
        <feMergeNode
           in="shadowMatrixOuter1"
           id="feMergeNode39" />
        <feMergeNode
           in="shadowMatrixOuter2"
           id="feMergeNode41" />
      </feMerge>
    </filter>
    <path
       d="M17.4881428,400 C7.83037292,400 0,392.07203 0,382.293886 L0,17.7061143 C0,7.92561643 7.83037292,0 17.4881428,0 L207.509532,0 C217.169627,0 225,7.92561643 225,17.7061143 L225,382.293886 C225,392.07203 217.169627,400 207.509532,400 L17.4881428,400 Z M17.4068526,52.9896762 L208.782763,52.9896762 L208.782763,336.195004 L17.4068526,336.195004 L17.4068526,52.9896762 Z"
       id="path-5" />
    <filter
       x="-50%"
       y="-50%"
       width="200%"
       height="200%"
       filterUnits="objectBoundingBox"
       id="filter-6">
      <feOffset
         dx="0"
         dy="5"
         in="SourceAlpha"
         result="shadowOffsetOuter1"
         id="feOffset47" />
      <feGaussianBlur
         stdDeviation="2.5"
         in="shadowOffsetOuter1"
         result="shadowBlurOuter1"
         id="feGaussianBlur49" />
      <feColorMatrix
         values="0 0 0 0 0   0 0 0 0 0   0 0 0 0 0  0 0 0 0.24 0"
         type="matrix"
         in="shadowBlurOuter1"
         result="shadowMatrixOuter1"
         id="feColorMatrix51" />
      <feOffset
         dx="0"
         dy="0"
         in="SourceAlpha"
         result="shadowOffsetOuter2"
         id="feOffset53" />
      <feGaussianBlur
         stdDeviation="2.5"
         in="shadowOffsetOuter2"
         result="shadowBlurOuter2"
         id="feGaussianBlur55" />
      <feColorMatrix
         values="0 0 0 0 0   0 0 0 0 0   0 0 0 0 0  0 0 0 0.12 0"
         type="matrix"
         in="shadowBlurOuter2"
         result="shadowMatrixOuter2"
         id="feColorMatrix57" />
      <feMerge
         id="feMerge63">
        <feMergeNode
           in="shadowMatrixOuter1"
           id="feMergeNode59" />
        <feMergeNode
           in="shadowMatrixOuter2"
           id="feMergeNode61" />
      </feMerge>
    </filter>
  </defs>
  <polygon
     points="322.27,707.25 320.13,707.68 108.97,649.53 108.97,89.42 328.19,39.32 567.97,89.42 577.09,87.5 805.97,39.32 805.97,683.53 587.66,653.11 "
     fill="#ffffff"
     id="polygon26"
     transform="matrix(1.7609933,0,0,1.0246482,-155.10977,21.241267)" />
  <polygon
     points="602.97,686 306.36,746.51 312.97,0 580.97,56 591.16,53.85 "
     opacity="0.1"
     id="polygon28"
     transform="translate(207.11803,5.9382745)" />
  <g
     opacity="0.3"
     id="g56"
     transform="matrix(1.4233315,0,0,1.4233315,26.264249,-174.67338)">
    <polyline
       points="573.35 138 573.47 347.5 660.47 347.5 660.47 261.5 809.47 261.5 826.97 239.06"
       fill="none"
       stroke="#444053"
       stroke-miterlimit="10"
       stroke-width="3"
       id="polyline30" />
    <polyline
       points="88.97 204.5 412.47 204.5 432.47 195.5 440.47 195.5 440.47 397.5 580.47 397.5 586.47 415.5 586.47 506.5 694.47 506.5 694.47 619"
       fill="none"
       stroke="#444053"
       stroke-miterlimit="10"
       stroke-width="3"
       id="polyline32" />
    <line
       x1="483.20001"
       y1="619"
       x2="483.20001"
       y2="397.5"
       fill="none"
       stroke="#444053"
       stroke-miterlimit="10"
       stroke-width="3"
       id="line34" />
    <line
       x1="826.96997"
       y1="559.65997"
       x2="483.20001"
       y2="559.65997"
       fill="none"
       stroke="#444053"
       stroke-miterlimit="10"
       stroke-width="3"
       id="line36" />
    <line
       x1="740.87"
       y1="138"
       x2="740.87"
       y2="619"
       fill="none"
       stroke="#444053"
       stroke-miterlimit="10"
       stroke-width="3"
       id="line38" />
    <line
       x1="87.970001"
       y1="517.14001"
       x2="826.96997"
       y2="517.14001"
       fill="none"
       stroke="#444053"
       stroke-miterlimit="10"
       stroke-width="3"
       id="line40" />
    <line
       x1="177.91"
       y1="619"
       x2="177.91"
       y2="138"
       fill="none"
       stroke="#444053"
       stroke-miterlimit="10"
       stroke-width="3"
       id="line42" />
    <line
       x1="349.69"
       y1="138"
       x2="349.69"
       y2="619"
       fill="none"
       stroke="#444053"
       stroke-miterlimit="10"
       stroke-width="3"
       id="line44" />
    <line
       x1="88.970001"
       y1="259.5"
       x2="660.46997"
       y2="261.5"
       fill="none"
       stroke="#444053"
       stroke-miterlimit="10"
       stroke-width="3"
       id="line46" />
    <line
       x1="255.3"
       y1="138.87"
       x2="255.3"
       y2="619"
       fill="none"
       stroke="#444053"
       stroke-miterlimit="10"
       stroke-width="3"
       id="line48" />
    <polyline
       points="87.97 370.82 349.69 370.82 483.2 517.14"
       fill="none"
       stroke="#444053"
       stroke-miterlimit="10"
       stroke-width="3"
       id="polyline50" />
    <line
       x1="512.12"
       y1="138"
       x2="512.12"
       y2="397.5"
       fill="none"
       stroke="#444053"
       stroke-miterlimit="10"
       stroke-width="3"
       id="line52" />
    <line
       x1="483.20001"
       y1="443.98001"
       x2="826.96997"
       y2="443.98001"
       fill="none"
       stroke="#444053"
       stroke-miterlimit="10"
       stroke-width="3"
       id="line54" />
  </g>
  <polygon
     points="585.97,442 484.97,442 484.97,398 580.47,397.5 586.47,414.5 "
     fill="#6c63ff"
     id="polygon58"
     transform="translate(207.11803,5.9382745)" />
  <path
     d="m 743.08803,219.93827 a 55.28,55.28 0 0 0 -55.28,55.28 c 0,30.53 55.28,129.72 55.28,129.72 0,0 55.28,-99.15 55.28,-129.72 a 55.28,55.28 0 0 0 -55.28,-55.28 z m 0,78.86 a 24.32,24.32 0 1 1 24.32,-24.32 24.32,24.32 0 0 1 -24.32,24.31 z"
     fill="#6c63ff"
     id="path60" />
  <path
     d="m 743.08803,219.93827 a 55.28,55.28 0 0 0 -55.28,55.28 c 0,30.53 55.28,129.72 55.28,129.72 0,0 55.28,-99.15 55.28,-129.72 a 55.28,55.28 0 0 0 -55.28,-55.28 z m 0,78.86 a 24.32,24.32 0 1 1 24.32,-24.32 24.32,24.32 0 0 1 -24.32,24.31 z"
     opacity="0.1"
     id="path62" />
  <path
     d="m 743.08803,227.93827 a 55.28,55.28 0 0 0 -55.28,55.28 c 0,30.53 55.28,129.72 55.28,129.72 0,0 55.28,-99.15 55.28,-129.72 a 55.28,55.28 0 0 0 -55.28,-55.28 z m 0,78.86 a 24.32,24.32 0 1 1 24.32,-24.32 24.32,24.32 0 0 1 -24.32,24.31 z"
     fill="#6c63ff"
     id="path64" />
  <g
     id="g102"
     transform="translate(-364.06965,2.0563782)">
    <ellipse
       cx="367.82224"
       cy="963.41779"
       rx="33.450001"
       ry="13.78"
       transform="rotate(-23.3)"
       fill="#6c63ff"
       opacity="0.1"
       id="ellipse66" />
    <ellipse
       cx="718.50806"
       cy="733.9082"
       rx="7.4000001"
       ry="9.6800003"
       fill="#3f3d56"
       id="ellipse68" />
    <ellipse
       cx="718.50806"
       cy="722.06824"
       rx="7.4000001"
       ry="9.6800003"
       fill="#3f3d56"
       id="ellipse70" />
    <ellipse
       cx="718.50806"
       cy="710.23834"
       rx="7.4000001"
       ry="9.6800003"
       fill="#3f3d56"
       id="ellipse72" />
    <ellipse
       cx="718.50806"
       cy="698.4082"
       rx="7.4000001"
       ry="9.6800003"
       fill="#3f3d56"
       id="ellipse74" />
    <ellipse
       cx="718.50806"
       cy="686.5683"
       rx="7.4000001"
       ry="9.6800003"
       fill="#3f3d56"
       id="ellipse76" />
    <ellipse
       cx="718.50806"
       cy="674.73828"
       rx="7.4000001"
       ry="9.6800003"
       fill="#3f3d56"
       id="ellipse78" />
    <ellipse
       cx="718.50806"
       cy="662.90826"
       rx="7.4000001"
       ry="9.6800003"
       fill="#3f3d56"
       id="ellipse80" />
    <path
       d="m 690.81803,581.91827 a 36.12,36.12 0 0 1 -2.76,-4 l 19.44,-3.2 -21,0.16 a 35.54,35.54 0 0 1 -0.68,-28.07 l 28.2,14.58 -26,-19.12 a 35.43,35.43 0 1 1 58.51,39.65 35.55,35.55 0 0 1 4,6.46 l -25.21,13.11 26.9,-9 a 35.45,35.45 0 0 1 -5.71,33.27 35.43,35.43 0 1 1 -55.69,0 35.44,35.44 0 0 1 0,-43.81 z"
       fill="#6c63ff"
       id="path82" />
    <path
       d="m 754.08803,603.78827 a 35.28,35.28 0 0 1 -7.58,21.91 35.43,35.43 0 1 1 -55.69,0 c -4.75,-6 63.27,-25.85 63.27,-21.91 z"
       opacity="0.1"
       id="path84" />
  </g>
  <ellipse
     cx="-314.80847"
     cy="675.87415"
     rx="19.99"
     ry="48.529999"
     transform="rotate(-45)"
     fill="#6c63ff"
     opacity="0.1"
     id="ellipse86" />
  <ellipse
     cx="258.74802"
     cy="689.63831"
     rx="10.73"
     ry="14.05"
     fill="#3f3d56"
     id="ellipse88" />
  <ellipse
     cx="258.74802"
     cy="672.46832"
     rx="10.73"
     ry="14.05"
     fill="#3f3d56"
     id="ellipse90" />
  <ellipse
     cx="258.74802"
     cy="655.29828"
     rx="10.73"
     ry="14.05"
     fill="#3f3d56"
     id="ellipse92" />
  <ellipse
     cx="258.74802"
     cy="638.1283"
     rx="10.73"
     ry="14.05"
     fill="#3f3d56"
     id="ellipse94" />
  <ellipse
     cx="258.74802"
     cy="620.95831"
     rx="10.73"
     ry="14.05"
     fill="#3f3d56"
     id="ellipse96" />
  <ellipse
     cx="258.74802"
     cy="603.78827"
     rx="10.73"
     ry="14.05"
     fill="#3f3d56"
     id="ellipse98" />
  <ellipse
     cx="258.74802"
     cy="586.61829"
     rx="10.73"
     ry="14.05"
     fill="#3f3d56"
     id="ellipse100" />
  <path
     d="m 298.91803,469.11827 a 51.13,51.13 0 0 0 4,-5.88 l -28.2,-4.63 30.5,0.22 a 51.54,51.54 0 0 0 1,-40.73 l -40.91,21.23 37.71,-27.74 a 51.41,51.41 0 1 0 -84.9,57.53 51.16,51.16 0 0 0 -5.86,9.37 l 36.6,19 -39,-13.1 a 51.45,51.45 0 0 0 8.29,48.27 51.4,51.4 0 1 0 80.8,0 51.41,51.41 0 0 0 0,-63.56 z"
     fill="#6c63ff"
     id="path102" />
  <path
     d="m 207.11803,500.89827 a 51.16,51.16 0 0 0 11,31.78 51.4,51.4 0 1 0 80.8,0 c 6.89,-8.74 -91.8,-37.55 -91.8,-31.78 z"
     opacity="0.1"
     id="path104" />
  <ellipse
     cx="250.16936"
     cy="1271.9672"
     rx="19.99"
     ry="48.529999"
     transform="rotate(-45)"
     fill="#6c63ff"
     opacity="0.1"
     id="ellipse4" />
  <ellipse
     cx="1079.748"
     cy="711.63831"
     rx="10.73"
     ry="14.05"
     fill="#3f3d56"
     id="ellipse6" />
  <ellipse
     cx="1079.748"
     cy="694.46832"
     rx="10.73"
     ry="14.05"
     fill="#3f3d56"
     id="ellipse8" />
  <ellipse
     cx="1079.748"
     cy="677.29828"
     rx="10.73"
     ry="14.05"
     fill="#3f3d56"
     id="ellipse10" />
  <ellipse
     cx="1079.748"
     cy="660.1283"
     rx="10.73"
     ry="14.05"
     fill="#3f3d56"
     id="ellipse12" />
  <ellipse
     cx="1079.748"
     cy="642.95831"
     rx="10.73"
     ry="14.05"
     fill="#3f3d56"
     id="ellipse14" />
  <ellipse
     cx="1079.748"
     cy="625.78827"
     rx="10.73"
     ry="14.05"
     fill="#3f3d56"
     id="ellipse16" />
  <ellipse
     cx="1079.748"
     cy="608.61829"
     rx="10.73"
     ry="14.05"
     fill="#3f3d56"
     id="ellipse18" />
  <path
     d="m 1119.918,491.11827 a 51.13,51.13 0 0 0 4,-5.88 l -28.2,-4.63 30.5,0.22 a 51.54,51.54 0 0 0 1,-40.73 l -40.91,21.23 37.71,-27.74 a 51.41,51.41 0 1 0 -84.9,57.53 51.16,51.16 0 0 0 -5.86,9.37 l 36.6,19 -39,-13.1 a 51.45,51.45 0 0 0 8.29,48.27 51.4,51.4 0 1 0 80.8,0 51.41,51.41 0 0 0 0,-63.56 z"
     fill="#6c63ff"
     id="path20" />
  <path
     d="m 1028.118,522.89827 a 51.16,51.16 0 0 0 11,31.78 51.4,51.4 0 1 0 80.8,0 c 6.89,-8.74 -91.8,-37.55 -91.8,-31.78 z"
     opacity="0.1"
     id="path22" />
</svg>
